<svg width="353" height="215" viewBox="0 0 353 215" fill="none" xmlns="http://www.w3.org/2000/svg">
<g clip-path="url(#clip0_20_415)">
<path d="M18.8791 37.8558H9.06396V0.622314H18.8791V37.8558Z" fill="white"/>
<path d="M35.0821 37.8557H26.2017V9.95656H34.355V13.3791C35.4283 12.1346 36.5881 11.1666 37.8345 10.4751C39.0808 9.7837 40.6042 9.43799 42.4045 9.43799C44.2048 9.43799 45.7368 9.80099 47.1044 10.527C48.4719 11.253 49.5365 12.3247 50.2982 13.7421C51.5099 12.3938 52.7996 11.3394 54.1671 10.5788C55.5347 9.81827 57.2398 9.43799 59.2825 9.43799C62.0522 9.43799 64.3199 10.3368 66.0856 12.1346C67.8513 13.9323 68.7341 16.5251 68.7341 19.9131V37.8557H59.8537V22.6616C59.8537 21.0367 59.5335 19.7576 58.893 18.8241C58.2525 17.8907 57.2917 17.424 56.0107 17.424C55.2837 17.424 54.6086 17.6055 53.9854 17.9685C53.3622 18.3315 52.8602 18.9019 52.4793 19.6798C52.0985 20.4576 51.9081 21.4689 51.9081 22.7134V37.8557H43.0277V22.6616C43.0277 21.0367 42.7074 19.7576 42.0669 18.8241C41.4264 17.8907 40.4657 17.424 39.1847 17.424C38.423 17.424 37.7306 17.6055 37.1074 17.9685C36.4842 18.3315 35.9909 18.9019 35.6273 19.6798C35.2638 20.4576 35.0821 21.4689 35.0821 22.7134V37.8557Z" fill="white"/>
<path d="M103.996 23.9061C103.996 26.6027 103.477 29.04 102.438 31.218C101.399 33.396 99.954 35.1332 98.1017 36.4297C96.2495 37.7261 94.0597 38.3743 91.5323 38.3743C90.0782 38.3743 88.728 38.115 87.4816 37.5965C86.2352 37.0779 85.0581 36.3 83.9502 35.2629V47.8642H75.0698V9.95656H83.2232V13.1199C84.3657 11.9098 85.6294 10.9937 87.0142 10.3714C88.3991 9.74913 89.9051 9.43799 91.5323 9.43799C94.0597 9.43799 96.2495 10.0862 98.1017 11.3826C99.954 12.6791 101.399 14.4249 102.438 16.6202C103.477 18.8155 103.996 21.2441 103.996 23.9061ZM94.7521 23.9061C94.7521 21.7281 94.1982 20.1033 93.0903 19.0316C91.9824 17.9599 90.7533 17.424 89.4031 17.424C88.5029 17.424 87.6374 17.666 86.8065 18.15C85.9756 18.634 85.3091 19.3514 84.8071 20.3021C84.3051 21.2528 84.0541 22.4714 84.0541 23.958C84.0541 25.4446 84.3138 26.6632 84.8331 27.6139C85.3524 28.5647 86.0189 29.2647 86.8325 29.7142C87.6461 30.1636 88.5029 30.3883 89.4031 30.3883C90.7533 30.3883 91.9824 29.8611 93.0903 28.8067C94.1982 27.7522 94.7521 26.1187 94.7521 23.9061Z" fill="white"/>
<path d="M125.184 37.8557V35.1592C124.215 36.2655 123.09 37.0779 121.809 37.5965C120.528 38.115 118.987 38.3743 117.187 38.3743C114.279 38.3743 111.933 37.5705 110.15 35.963C108.367 34.3554 107.475 32.2379 107.475 29.6104C107.475 26.983 108.549 24.7964 110.695 23.3616C112.842 21.9269 115.906 21.2096 119.887 21.2096C120.649 21.2096 121.376 21.2355 122.068 21.2874C122.761 21.3392 123.401 21.417 123.99 21.5207V20.1724C123.99 18.9624 123.652 18.029 122.977 17.3721C122.302 16.7153 121.341 16.3869 120.095 16.3869C118.849 16.3869 117.922 16.7153 117.213 17.3721C116.503 18.029 116.062 18.9624 115.888 20.1724H107.891C108.064 17.9944 108.687 16.1016 109.76 14.4941C110.834 12.8865 112.262 11.6419 114.045 10.7603C115.828 9.87877 117.862 9.43799 120.147 9.43799C123.99 9.43799 126.985 10.4233 129.131 12.3938C131.278 14.3644 132.351 17.1129 132.351 20.6391V37.8557H125.184ZM115.837 29.3512C115.837 30.25 116.139 30.9587 116.745 31.4773C117.351 31.9959 118.191 32.2552 119.264 32.2552C120.753 32.2552 121.913 31.9267 122.744 31.2699C123.574 30.613 123.99 29.7142 123.99 28.5733V26.8102C123.332 26.6719 122.726 26.5768 122.172 26.5249C121.618 26.4731 121.047 26.4472 120.459 26.4472C118.97 26.4472 117.827 26.6892 117.031 27.1732C116.235 27.6572 115.837 28.3832 115.837 29.3512Z" fill="white"/>
<path d="M150.995 38.3743C148.225 38.3743 145.784 37.7607 143.672 36.5334C141.56 35.3061 139.907 33.6034 138.713 31.4254C137.518 29.2474 136.921 26.741 136.921 23.9061C136.921 21.0713 137.536 18.6686 138.765 16.4906C139.994 14.3126 141.673 12.5926 143.802 11.3308C145.931 10.0689 148.329 9.43799 150.995 9.43799C153.661 9.43799 155.859 9.98249 157.902 11.0715C159.944 12.1605 161.606 13.673 162.887 15.609C164.168 17.545 164.93 19.8094 165.172 22.4023H155.72C155.651 20.8811 155.192 19.6711 154.344 18.7723C153.496 17.8734 152.397 17.424 151.047 17.424C150.008 17.424 149.125 17.6833 148.398 18.2019C147.671 18.7204 147.108 19.4551 146.71 20.4058C146.312 21.3565 146.113 22.5233 146.113 23.9061C146.113 25.289 146.303 26.4731 146.684 27.4584C147.065 28.4437 147.628 29.1869 148.372 29.6882C149.116 30.1895 150.008 30.4402 151.047 30.4402C152.431 30.4402 153.531 29.9994 154.344 29.1178C155.158 28.2362 155.617 27.0003 155.72 25.41H165.172C164.93 28.072 164.185 30.371 162.939 32.307C161.693 34.243 160.057 35.7382 158.031 36.7927C156.006 37.8471 153.661 38.3743 150.995 38.3743Z" fill="white"/>
<path d="M188.749 29.1438V36.8705C187.78 37.4237 186.793 37.8126 185.789 38.0373C184.785 38.262 183.66 38.3744 182.414 38.3744C180.336 38.3744 178.553 37.9768 177.065 37.1817C175.576 36.3865 174.433 35.2284 173.637 33.7072C172.841 32.1861 172.443 30.3711 172.443 28.2622V17.6833H167.249V9.95662H172.443V1.76318H181.323V9.95662H188.957V17.6833H181.323V26.1879C181.323 27.5362 181.617 28.5301 182.206 29.1697C182.794 29.8093 183.695 30.1291 184.906 30.1291C185.633 30.1291 186.334 30.0427 187.01 29.8698C187.685 29.6969 188.265 29.4549 188.749 29.1438Z" fill="white"/>
<path d="M205.731 37.8558H196.851V17.6833H191.658V9.95659H196.851V8.9713C196.851 6.10187 197.63 3.88929 199.188 2.33357C200.746 0.777858 203.083 0 206.199 0C207.203 0 208.129 0.0864287 208.977 0.259286C209.825 0.432143 210.578 0.656858 211.236 0.93343V7.93415C210.89 7.7613 210.457 7.63165 209.938 7.54522C209.418 7.4588 208.916 7.41558 208.432 7.41558C207.67 7.41558 207.03 7.54522 206.51 7.80451C205.991 8.0638 205.731 8.52187 205.731 9.17873V9.95659H212.586V17.6833H205.731V37.8558Z" fill="white"/>
<path d="M228.841 38.3743C226.764 38.3743 224.842 38.0027 223.077 37.2594C221.311 36.5161 219.77 35.4789 218.455 34.1479C217.139 32.8169 216.109 31.2785 215.365 29.5327C214.62 27.7868 214.248 25.9113 214.248 23.9061C214.248 21.901 214.62 20.0255 215.365 18.2796C216.109 16.5338 217.139 14.9954 218.455 13.6644C219.77 12.3333 221.311 11.2962 223.077 10.5529C224.842 9.80963 226.764 9.43799 228.841 9.43799C230.918 9.43799 232.84 9.80963 234.605 10.5529C236.371 11.2962 237.912 12.3333 239.227 13.6644C240.543 14.9954 241.573 16.5338 242.317 18.2796C243.062 20.0255 243.434 21.901 243.434 23.9061C243.434 25.9113 243.062 27.7868 242.317 29.5327C241.573 31.2785 240.543 32.8169 239.227 34.1479C237.912 35.4789 236.371 36.5161 234.605 37.2594C232.84 38.0027 230.918 38.3743 228.841 38.3743ZM228.841 30.4402C229.776 30.4402 230.65 30.1982 231.464 29.7142C232.277 29.2302 232.935 28.5042 233.437 27.5362C233.939 26.5682 234.19 25.3582 234.19 23.9061C234.19 22.4541 233.939 21.2441 233.437 20.2761C232.935 19.3081 232.277 18.5908 231.464 18.1241C230.65 17.6574 229.776 17.424 228.841 17.424C227.906 17.424 227.075 17.6574 226.244 18.1241C225.413 18.5908 224.747 19.3081 224.245 20.2761C223.743 21.2441 223.492 22.4541 223.492 23.9061C223.492 25.3582 223.743 26.5682 224.245 27.5362C224.747 28.5042 225.413 29.2302 226.244 29.7142C227.075 30.1982 227.941 30.4402 228.841 30.4402Z" fill="white"/>
<path d="M257.144 23.1801V37.8557H248.264V9.95656H256.417V13.3273C257.525 12.1173 258.745 11.1666 260.078 10.4751C261.411 9.7837 262.96 9.43799 264.726 9.43799C267.496 9.43799 269.755 10.3368 271.503 12.1346C273.252 13.9323 274.126 16.5251 274.126 19.9131V37.8557H265.245V22.869C265.245 21.1059 264.925 19.7576 264.285 18.8241C263.644 17.8907 262.649 17.424 261.299 17.424C260.572 17.424 259.888 17.6141 259.247 17.9944C258.607 18.3747 258.096 18.9797 257.715 19.8094C257.335 20.6391 257.144 21.7627 257.144 23.1801Z" fill="white"/>
<path d="M278.696 23.9062C278.696 21.2096 279.215 18.7637 280.254 16.5684C281.293 14.3731 282.747 12.6359 284.616 11.3568C286.486 10.0776 288.667 9.43804 291.16 9.43804C292.614 9.43804 293.973 9.69733 295.236 10.2159C296.5 10.7345 297.668 11.5123 298.742 12.5495V0.622314H307.622V37.8558H299.469V34.6925C298.326 35.8679 297.063 36.7754 295.678 37.415C294.293 38.0546 292.787 38.3744 291.16 38.3744C288.667 38.3744 286.486 37.7262 284.616 36.4297C282.747 35.1333 281.293 33.3874 280.254 31.1921C279.215 28.9969 278.696 26.5682 278.696 23.9062ZM287.94 23.9062C287.94 26.0842 288.494 27.7091 289.602 28.7808C290.71 29.8525 291.939 30.3884 293.289 30.3884C294.224 30.3884 295.098 30.1464 295.911 29.6624C296.725 29.1784 297.383 28.4524 297.885 27.4844C298.387 26.5163 298.638 25.3063 298.638 23.8543C298.638 22.4023 298.378 21.1491 297.859 20.1984C297.34 19.2477 296.673 18.5476 295.86 18.0982C295.046 17.6488 294.189 17.4241 293.289 17.4241C291.939 17.4241 290.71 17.9426 289.602 18.9798C288.494 20.0169 287.94 21.6591 287.94 23.9062Z" fill="white"/>
<path d="M338.98 28.3659C338.98 31.4427 337.873 33.88 335.657 35.6777C333.441 37.4755 330.221 38.3743 325.997 38.3743C321.774 38.3743 318.571 37.4495 316.286 35.5999C314.001 33.7504 312.72 31.218 312.443 28.0029H320.96C320.96 29.1783 321.445 30.1117 322.414 30.8032C323.384 31.4946 324.63 31.8403 326.153 31.8403C327.157 31.8403 328.049 31.702 328.828 31.4254C329.607 31.1489 329.996 30.6476 329.996 29.9216C329.996 29.2993 329.762 28.8326 329.295 28.5214C328.828 28.2103 328.109 27.9683 327.14 27.7954L321.635 26.8102C319.212 26.3607 317.273 25.4446 315.819 24.0617C314.365 22.6789 313.638 20.8639 313.638 18.6167C313.638 16.819 314.122 15.2287 315.092 13.8459C316.061 12.463 317.437 11.3826 319.22 10.6048C321.003 9.82692 323.107 9.43799 325.53 9.43799C327.954 9.43799 330.152 9.8442 332.022 10.6566C333.891 11.4691 335.388 12.6358 336.514 14.157C337.639 15.6781 338.288 17.4759 338.461 19.5501H329.944C329.84 18.4439 329.39 17.5709 328.594 16.9314C327.798 16.2918 326.794 15.972 325.582 15.972C324.543 15.972 323.712 16.1189 323.089 16.4128C322.466 16.7066 322.154 17.1647 322.154 17.787C322.154 18.3747 322.379 18.7896 322.83 19.0316C323.28 19.2736 323.937 19.481 324.803 19.6539L330.723 20.7429C333.424 21.2269 335.475 22.1171 336.877 23.4135C338.279 24.7099 338.98 26.3607 338.98 28.3659Z" fill="white"/>
<path d="M6 95.5901C6 93.3602 9.37559 94.6567 9.89491 91.0267L13.4782 65.7722C13.5302 65.4092 13.5302 65.0462 13.5302 64.7351C13.5302 62.1422 10.6739 62.8163 10.6739 61.1569C10.6739 60.2753 11.349 59.7049 12.4915 59.7049C13.634 59.7049 14.9843 59.8605 17.477 59.8605C19.9698 59.8605 22.7222 59.6012 25.5265 59.6012C36.9516 59.6012 44.5337 66.3945 44.5337 76.5066C44.5337 88.2782 35.4455 96.7828 22.826 96.7828C19.5024 96.7828 16.3345 96.5754 12.907 96.5754C10.2065 96.5754 8.59661 96.731 7.35024 96.731C6.41546 96.731 6 96.2124 6 95.5901ZM20.541 93.3084H22.3067C31.1871 93.3084 37.1074 86.3595 37.1074 75.8844C37.1074 68.2095 32.6931 63.0238 25.0072 63.0238H24.2282C21.2681 63.0238 20.4891 63.6979 20.2814 65.4611L16.75 90.2488C16.698 90.6118 16.6461 91.0785 16.6461 91.5452C16.6461 92.7898 17.477 93.3084 20.541 93.3084Z" fill="white"/>
<path d="M50.2463 89.6784C50.2463 89.3673 50.2982 88.382 50.5579 86.7225L51.5446 79.7218C51.5965 79.1514 51.7004 78.5291 51.7004 78.1661C51.7004 75.9362 48.3767 76.8178 48.3767 74.951C48.3767 73.9657 48.896 73.7064 52.9987 71.9951C56.0107 70.8024 56.7378 70.5431 57.4129 70.5431C58.14 70.5431 58.7112 71.2172 58.7112 72.0469C58.7112 72.4618 58.6593 72.8767 58.5554 73.5508L56.8417 85.5817C56.7378 86.3595 56.6339 87.1374 56.6339 88.0708C56.6339 90.9748 58.14 92.5824 60.8924 92.5824C64.0602 92.5824 67.332 90.4044 68.2148 85.5817L69.0457 79.7218C69.1496 79.1514 69.2015 78.581 69.2015 78.1661C69.2015 75.9362 65.6182 76.8697 65.6182 74.951C65.6182 73.8101 66.7088 73.4471 70.396 71.9951C73.5119 70.7505 74.2909 70.5431 74.8621 70.5431C75.6411 70.5431 76.2124 71.1654 76.2124 72.0469C76.2124 72.5137 76.2124 72.8767 76.1085 73.499L73.9793 88.5375C73.8754 89.2635 73.8235 90.0933 73.8235 90.4044C73.8235 91.3378 74.3428 91.9601 75.1737 91.9601C75.9008 91.9601 76.524 91.3897 77.0952 91.3897C77.7184 91.3897 78.1858 91.9083 78.1858 92.738C78.1858 94.9678 75.0698 97.0421 72.1097 97.0421C69.617 97.0421 67.6435 95.642 67.6435 92.6861V92.375C65.5663 95.0715 62.1387 97.3533 57.8803 97.3533C53.3622 97.3533 50.2463 94.553 50.2463 89.6784Z" fill="white"/>
<path d="M84.1579 89.6784C84.1579 89.3673 84.2098 88.382 84.4695 86.7225L85.4562 79.7218C85.5081 79.1514 85.612 78.5291 85.612 78.1661C85.612 75.9362 82.2883 76.8178 82.2883 74.951C82.2883 73.9657 82.8077 73.7064 86.9103 71.9951C89.9224 70.8024 90.6494 70.5431 91.3245 70.5431C92.0516 70.5431 92.6228 71.2172 92.6228 72.0469C92.6228 72.4618 92.5709 72.8767 92.467 73.5508L90.7533 85.5817C90.6494 86.3595 90.5455 87.1374 90.5455 88.0708C90.5455 90.9748 92.0516 92.5824 94.804 92.5824C97.9718 92.5824 101.244 90.4044 102.126 85.5817L102.957 79.7218C103.061 79.1514 103.113 78.581 103.113 78.1661C103.113 75.9362 99.5298 76.8697 99.5298 74.951C99.5298 73.8101 100.62 73.4471 104.308 71.9951C107.424 70.7505 108.202 70.5431 108.774 70.5431C109.553 70.5431 110.124 71.1654 110.124 72.0469C110.124 72.5137 110.124 72.8767 110.02 73.499L107.891 88.5375C107.787 89.2635 107.735 90.0933 107.735 90.4044C107.735 91.3378 108.254 91.9601 109.085 91.9601C109.812 91.9601 110.436 91.3897 111.007 91.3897C111.63 91.3897 112.097 91.9083 112.097 92.738C112.097 94.9678 108.981 97.0421 106.021 97.0421C103.529 97.0421 101.555 95.642 101.555 92.6861V92.375C99.4779 95.0715 96.0504 97.3533 91.7919 97.3533C87.2738 97.3533 84.1579 94.553 84.1579 89.6784Z" fill="white"/>
<path d="M117.446 95.3827C117.446 94.1382 119.939 80.9146 119.939 78.1662C119.939 75.9882 116.667 76.9216 116.667 75.0547C116.667 74.0176 117.602 73.6546 121.289 72.047C124.198 70.8024 124.977 70.5431 125.652 70.5431C126.431 70.5431 126.95 71.2173 126.95 72.0989C126.95 72.4619 126.898 72.8249 126.846 73.499C126.638 74.7436 126.483 75.9882 126.275 77.2327C128.56 73.2397 132.403 70.3876 135.363 70.3876C137.96 70.3876 139.725 72.1507 139.725 74.6917C139.725 76.8697 138.219 78.8922 136.246 78.8922C133.234 78.8922 133.39 75.9363 131.52 75.9363C130.014 75.9363 126.015 79.3589 125.029 85.9447C124.665 88.8487 124.302 91.7009 123.99 94.4493C123.782 96.368 122.847 96.8866 119.524 96.8866C118.225 96.8866 117.446 96.4718 117.446 95.3827Z" fill="white"/>
<path d="M146.321 95.279C144.243 95.279 142.374 96.731 140.92 96.731C139.829 96.731 138.998 95.9531 138.998 95.0716C138.998 94.4493 139.154 93.9307 139.933 93.2047C145.542 87.5004 152.241 81.0182 157.123 75.0547C155.305 74.4842 153.799 73.9657 152.397 73.9657C147.931 73.9657 148.917 78.6328 145.438 78.6328C143.568 78.6328 142.322 77.3882 142.322 75.5732C142.322 72.773 145.282 70.5431 149.956 70.5431C153.903 70.5431 157.694 72.1507 159.771 72.1507C161.641 72.1507 163.51 70.8542 164.861 70.8542C165.847 70.8542 166.47 71.5284 166.47 72.3062C166.47 72.8767 166.211 73.4471 165.639 74.0694C160.966 78.8402 153.124 86.7225 148.502 92.3231C150.787 92.8935 152.605 93.464 154.162 93.464C159.044 93.464 158.421 88.4857 162.004 88.4857C163.874 88.4857 165.016 89.9377 165.016 91.649C165.016 94.7086 161.537 97.094 156.655 97.094C152.553 97.094 148.606 95.279 146.321 95.279Z" fill="white"/>
<path d="M168.963 86.0484C168.963 77.1289 175.714 70.2319 183.4 70.2319C187.503 70.2319 189.476 72.2025 190.93 72.2025C192.385 72.2025 194.254 70.4912 195.449 70.4912C196.279 70.4912 196.747 71.1654 196.591 72.1507L194.306 88.5375C194.202 89.2635 194.15 90.0932 194.15 90.3525C194.15 91.3897 194.618 91.9601 195.397 91.9601C196.228 91.9601 196.695 91.3897 197.318 91.3897C197.941 91.3897 198.409 91.9082 198.409 92.738C198.409 94.9678 195.345 97.0421 192.281 97.0421C189.788 97.0421 187.866 95.5901 187.866 92.8417V92.375C185.789 95.1752 182.517 97.3533 178.674 97.3533C173.222 97.3533 168.963 93.101 168.963 86.0484ZM181.635 92.8935C184.491 92.8935 187.815 90.4562 188.594 85.3224C188.853 83.3518 189.113 81.6924 189.113 80.0329C189.113 75.8844 186.932 73.4989 183.92 73.4989C179.505 73.4989 175.662 78.6847 175.662 84.7519C175.662 89.7302 178.363 92.8935 181.635 92.8935Z" fill="white"/>
<path d="M237.046 92.0639C237.046 90.6119 237.566 84.4409 237.566 81.485C237.566 76.9734 236.579 75.2622 234.346 75.2622C231.957 75.2622 229.153 77.2846 228.114 82.3666C227.595 85.8929 227.283 88.9006 226.712 94.4493C226.452 96.368 225.569 96.8866 222.246 96.8866C220.947 96.8866 220.168 96.4718 220.168 95.3827C220.168 93.2047 222.194 83.5593 222.194 79.9812C222.194 77.3883 221.259 75.2622 218.558 75.2622C215.858 75.2622 212.534 77.5957 211.703 82.5222C211.08 87.0856 210.613 90.3526 210.197 94.4493C209.938 96.368 209.055 96.8866 205.731 96.8866C204.433 96.8866 203.654 96.4718 203.654 95.3827C203.654 94.19 206.147 80.9146 206.147 78.1662C206.147 75.9882 202.875 76.9216 202.875 75.0547C202.875 73.9657 203.81 73.6546 207.497 72.047C210.561 70.7506 211.132 70.5431 211.859 70.5431C212.638 70.5431 213.157 71.2173 213.157 72.0989C213.157 72.2026 213.157 72.6693 213.002 73.5509C212.898 74.225 212.794 74.8473 212.742 75.4696C214.923 72.5656 217.987 70.3876 221.726 70.3876C225.673 70.3876 227.647 72.8767 228.27 75.9881C230.451 72.6174 233.775 70.3876 237.254 70.3876C240.526 70.3876 243.797 72.2544 243.797 78.3736C243.797 80.8627 243.278 87.5005 243.278 89.5747C243.278 91.649 243.797 92.1676 244.68 92.1676C245.719 92.1676 246.238 91.4935 246.913 91.4935C247.537 91.4935 248.056 91.9602 248.056 92.738C248.056 94.6567 244.836 96.9903 241.772 96.9903C238.916 96.9903 237.046 95.2272 237.046 92.0639Z" fill="white"/>
<path d="M250.756 85.7373C250.756 77.2845 257.871 70.2838 265.869 70.2838C272.049 70.2838 275.268 74.6917 275.268 78.5291C275.268 80.6553 273.814 82.0554 272.1 82.574L257.767 86.8263C258.858 90.4563 261.558 93.0491 265.401 93.0491C267.946 93.0491 270.439 91.9601 272.568 90.0933C273.399 89.4191 273.71 89.2636 274.126 89.2636C274.853 89.2636 275.268 89.9377 275.268 90.5081C275.268 91.0267 275.009 91.649 274.489 92.3231C272.464 94.8641 267.634 97.3533 262.493 97.3533C255.742 97.3533 250.756 92.9454 250.756 85.7373ZM257.3 83.7667L266.907 80.8108C268.206 80.4478 268.985 79.5144 268.985 78.2698C268.985 76.1437 267.582 73.7582 264.622 73.7582C260.779 73.7582 257.3 77.7513 257.3 83.2481V83.7667Z" fill="white"/>
<path d="M19.5024 153.999L12.0242 124.699C11.0894 121.069 8.28503 121.64 8.28503 119.877C8.28503 118.943 9.11595 118.476 9.89493 118.476C11.0894 118.476 12.7512 118.632 15.1401 118.632C17.529 118.632 19.762 118.476 21.3719 118.476C22.3587 118.476 23.0338 118.839 23.0338 119.617C23.0338 121.899 18.8273 121.121 18.8273 123.818C18.8273 124.44 19.035 125.373 19.2427 126.255L25.0591 149.28L37.6786 125.892C38.3018 124.699 38.6134 123.818 38.6134 123.299C38.6134 121.225 35.1859 121.588 35.1859 119.98C35.1859 119.047 36.0168 118.476 37.2632 118.476C38.8212 118.476 40.3791 118.632 42.1967 118.632C43.8586 118.632 45.5723 118.476 46.7148 118.476C47.4938 118.476 48.0132 118.891 48.0132 119.514C48.0132 121.795 44.8972 120.706 42.8719 124.544L26.8768 153.999C26.0978 155.451 25.2669 155.969 22.878 155.969C20.3333 155.969 19.814 155.347 19.5024 153.999Z" fill="white"/>
<path d="M42.5083 144.509C42.5083 135.901 49.3633 128.952 58.6592 128.952C66.0855 128.952 71.071 133.515 71.071 140.62C71.071 149.228 64.164 156.229 54.9201 156.229C47.4938 156.229 42.5083 151.613 42.5083 144.509ZM56.5819 152.858C61.0481 152.858 64.2679 148.45 64.2679 142.435C64.2679 136.782 61.3597 132.271 56.9974 132.271C52.6351 132.271 49.3114 136.782 49.3114 142.746C49.3114 148.346 52.1158 152.858 56.5819 152.858Z" fill="white"/>
<path d="M74.7063 144.509C74.7063 136.056 81.821 129.055 89.8186 129.055C95.9985 129.055 99.2183 133.463 99.2183 137.301C99.2183 139.427 97.7642 140.827 96.0504 141.345L81.7171 145.598C82.8077 149.228 85.5082 151.821 89.3512 151.821C91.8959 151.821 94.3886 150.732 96.5178 148.865C97.3487 148.191 97.6603 148.035 98.0758 148.035C98.8028 148.035 99.2183 148.709 99.2183 149.28C99.2183 149.798 98.9586 150.42 98.4393 151.095C96.414 153.636 91.5843 156.125 86.443 156.125C79.6918 156.125 74.7063 151.717 74.7063 144.509ZM81.2498 142.538L90.8572 139.582C92.1555 139.219 92.9345 138.286 92.9345 137.041C92.9345 134.915 91.5323 132.53 88.5722 132.53C84.7292 132.53 81.2498 136.523 81.2498 142.02V142.538Z" fill="white"/>
<path d="M102.905 144.768C102.905 135.9 109.76 129.003 117.446 129.003C120.822 129.003 123.367 130.3 125.029 132.167L125.963 125.373C126.015 124.855 126.119 124.284 126.119 123.818C126.119 121.64 122.484 122.469 122.484 120.603C122.484 119.565 123.367 119.202 127.314 117.595C130.274 116.402 131.105 116.195 131.832 116.195C132.611 116.195 133.13 116.817 133.13 117.595C133.13 118.062 133.078 118.425 132.974 119.099L129.027 147.361C128.923 148.087 128.871 148.761 128.871 149.228C128.871 150.213 129.391 150.783 130.17 150.783C131.001 150.783 131.52 150.213 132.091 150.213C132.714 150.213 133.234 150.68 133.234 151.561C133.234 153.791 130.17 155.865 127.106 155.865C124.613 155.865 122.588 154.465 122.588 151.509V151.146C120.407 153.947 117.031 156.125 112.773 156.125C107.216 156.125 102.905 151.872 102.905 144.768ZM115.837 151.665C119.212 151.665 122.692 148.968 123.367 144.301C123.574 142.486 123.834 140.931 123.834 139.634C123.834 135.952 122.068 132.27 118.018 132.27C113.5 132.27 109.605 137.456 109.605 143.523C109.605 148.554 112.409 151.665 115.837 151.665Z" fill="white"/>
<path d="M135.882 149.383C135.882 147.153 137.388 145.805 139.258 145.805C141.335 145.805 142.01 147.257 142.166 148.968C142.374 150.68 143.257 153.065 147.204 153.065C150.527 153.065 152.864 151.406 152.864 149.124C152.864 146.842 150.268 146.013 146.892 144.716C142.218 143.16 138.271 141.345 138.271 137.197C138.271 132.582 143.153 129.003 149.54 129.003C154.734 129.003 159.356 131.233 159.356 135.019C159.356 136.938 158.213 138.493 156.032 138.493C154.214 138.493 153.28 137.249 153.072 135.486C152.864 133.826 152.397 132.167 149.229 132.167C146.321 132.167 144.243 133.826 144.243 135.952C144.243 137.508 145.386 138.338 150.008 139.945C155.98 141.864 159.148 143.835 159.148 147.672C159.148 152.443 154.007 156.228 146.684 156.228C139.933 156.228 135.882 153.013 135.882 149.383Z" fill="white"/>
<path d="M163.043 144.509C163.043 136.056 170.158 129.055 178.155 129.055C184.335 129.055 187.555 133.463 187.555 137.301C187.555 139.427 186.101 140.827 184.387 141.345L170.054 145.598C171.144 149.228 173.845 151.821 177.688 151.821C180.233 151.821 182.725 150.732 184.854 148.865C185.685 148.191 185.997 148.035 186.412 148.035C187.139 148.035 187.555 148.709 187.555 149.28C187.555 149.798 187.295 150.42 186.776 151.095C184.751 153.636 179.921 156.125 174.78 156.125C168.028 156.125 163.043 151.717 163.043 144.509ZM169.586 142.538L179.194 139.582C180.492 139.219 181.271 138.286 181.271 137.041C181.271 134.915 179.869 132.53 176.909 132.53C173.066 132.53 169.586 136.523 169.586 142.02V142.538Z" fill="white"/>
<path d="M192.021 151.458C192.021 150.991 192.125 150.006 192.229 149.331L195.604 125.373C195.708 124.855 195.76 124.284 195.76 123.818C195.76 121.64 192.437 122.469 192.437 120.654C192.437 119.565 193.267 119.151 197.059 117.647C199.967 116.454 200.746 116.195 201.473 116.195C202.252 116.195 202.823 116.817 202.823 117.595C202.823 118.062 202.719 118.425 202.615 119.099L198.668 147.257C198.565 147.931 198.513 148.709 198.513 149.124C198.513 150.161 198.876 150.732 199.811 150.732C200.642 150.732 201.161 150.161 201.732 150.161C202.356 150.161 202.823 150.68 202.823 151.509C202.823 153.739 199.811 155.814 196.643 155.814C194.046 155.814 192.021 154.362 192.021 151.458Z" fill="white"/>
<path d="M207.497 154.154C207.497 152.91 209.678 139.634 210.042 136.938L211.703 125.373C211.755 124.855 211.859 124.284 211.859 123.818C211.859 121.64 208.535 122.469 208.535 120.654C208.535 119.565 209.366 119.151 213.105 117.647C216.066 116.454 216.845 116.195 217.52 116.195C218.351 116.195 218.87 116.817 218.87 117.595C218.87 118.062 218.818 118.425 218.714 119.099L216.897 132.27C216.481 135.33 216.014 138.441 215.546 141.553C220.999 134.241 226.089 129.47 231.593 129.47C234.294 129.47 235.748 130.87 235.748 132.789C235.748 134.708 234.034 136.004 232.113 136.004C230.191 136.004 228.997 134.656 227.335 134.656C226.192 134.656 224.894 135.486 223.284 136.886C224.634 141.916 226.244 146.013 227.595 148.346C228.685 150.213 229.36 150.68 230.087 150.68C231.645 150.68 232.165 149.28 233.255 149.28C233.878 149.28 234.398 149.746 234.398 150.732C234.398 152.858 232.113 155.814 228.477 155.814C226.089 155.814 224.271 154.517 222.921 152.028C221.311 149.124 219.961 145.442 218.61 141.242C217.26 142.849 215.962 144.612 214.923 146.168C214.612 148.605 214.3 150.939 214.04 153.221C213.833 155.139 212.898 155.658 209.574 155.658C208.276 155.658 207.497 155.243 207.497 154.154Z" fill="white"/>
<path d="M237.929 144.509C237.929 136.056 245.044 129.055 253.041 129.055C259.221 129.055 262.441 133.463 262.441 137.301C262.441 139.427 260.987 140.827 259.273 141.345L244.94 145.598C246.031 149.228 248.731 151.821 252.574 151.821C255.119 151.821 257.611 150.732 259.741 148.865C260.572 148.191 260.883 148.035 261.299 148.035C262.026 148.035 262.441 148.709 262.441 149.28C262.441 149.798 262.181 150.42 261.662 151.095C259.637 153.636 254.807 156.125 249.666 156.125C242.915 156.125 237.929 151.717 237.929 144.509ZM244.473 142.538L254.08 139.582C255.378 139.219 256.157 138.286 256.157 137.041C256.157 134.915 254.755 132.53 251.795 132.53C247.952 132.53 244.473 136.523 244.473 142.02V142.538Z" fill="white"/>
<path d="M268.206 150.991C268.206 149.072 268.725 148.035 269.452 142.694L270.802 132.996H267.842C267.011 132.996 266.388 132.582 266.388 131.752C266.388 130.767 267.323 130.248 268.309 129.781C271.581 128.381 273.295 126.203 275.32 122.003C275.995 120.706 276.463 119.928 277.501 119.928C278.228 119.928 278.8 120.499 278.644 121.588L277.449 129.729H285.343C286.018 129.729 286.278 130.041 286.278 130.715C286.278 131.13 286.174 131.752 286.018 132.115C285.811 132.685 285.447 132.996 284.668 132.996H276.982L275.164 145.857C274.905 147.724 274.853 148.554 274.853 149.228C274.853 151.147 276.203 151.924 277.501 151.924C278.956 151.924 280.15 151.095 281.292 150.161C281.864 149.746 282.279 149.332 282.85 149.332C283.577 149.332 284.045 149.902 284.045 150.628C284.045 151.613 283.318 152.391 282.331 153.273C280.254 155.088 277.657 156.021 275.009 156.021C270.231 156.021 268.206 153.117 268.206 150.991Z" fill="white"/>
<path d="M287.265 144.509C287.265 136.056 294.379 129.055 302.377 129.055C308.557 129.055 311.777 133.463 311.777 137.301C311.777 139.427 310.323 140.827 308.609 141.345L294.275 145.598C295.366 149.228 298.067 151.821 301.91 151.821C304.454 151.821 306.947 150.732 309.076 148.865C309.907 148.191 310.219 148.035 310.634 148.035C311.361 148.035 311.777 148.709 311.777 149.28C311.777 149.798 311.517 150.42 310.998 151.095C308.972 153.636 304.143 156.125 299.001 156.125C292.25 156.125 287.265 151.717 287.265 144.509ZM293.808 142.538L303.416 139.582C304.714 139.219 305.493 138.286 305.493 137.041C305.493 134.915 304.091 132.53 301.131 132.53C297.288 132.53 293.808 136.523 293.808 142.02V142.538Z" fill="white"/>
<path d="M334.99 150.835C334.99 149.435 335.406 143.212 335.406 140.308C335.406 135.745 334.367 134.034 331.978 134.034C329.278 134.034 326.162 136.263 325.227 141.916C324.656 145.753 324.188 149.591 323.773 153.221C323.565 155.14 322.631 155.658 319.307 155.658C318.009 155.658 317.23 155.243 317.23 154.154C317.23 152.91 319.722 139.686 319.722 136.938C319.722 134.76 316.451 135.693 316.451 133.826C316.451 132.789 317.385 132.426 321.073 130.818C323.981 129.574 324.76 129.315 325.435 129.315C326.214 129.315 326.733 129.989 326.733 130.87C326.733 131.233 326.681 131.596 326.629 132.27L326.318 134.345C328.343 131.389 331.615 129.159 335.094 129.159C338.366 129.159 341.69 131.026 341.69 137.197C341.69 139.634 341.17 146.324 341.17 148.346C341.17 150.524 341.69 150.939 342.624 150.939C343.663 150.939 344.182 150.265 344.909 150.265C345.533 150.265 346 150.732 346 151.51C346 153.428 342.832 155.762 339.716 155.762C336.86 155.762 334.99 153.999 334.99 150.835Z" fill="white"/>
<path d="M6 213.133C6 210.903 9.37559 212.2 9.89491 208.57L13.4782 183.315C13.5302 182.952 13.5302 182.589 13.5302 182.278C13.5302 179.685 10.6739 180.359 10.6739 178.7C10.6739 177.818 11.349 177.248 12.4915 177.248C13.634 177.248 14.9323 177.352 17.3212 177.352C19.4504 177.352 22.7741 177.092 25.6304 177.092C35.9649 177.092 41.5735 181.604 41.5735 188.708C41.5735 194.102 37.6267 198.509 31.6026 200.117L36.2765 207.636C38.6134 211.422 41.3139 211.059 41.3139 212.77C41.3139 213.704 40.6388 214.274 39.704 214.274C38.6134 214.274 36.2245 214.118 33.8876 214.118C31.7064 214.118 29.5772 214.274 28.2789 214.274C27.2922 214.274 26.669 213.911 26.669 213.133C26.669 211.111 29.6291 211.837 29.6291 209.814C29.6291 209.14 29.2656 208.414 28.8502 207.74L25.4746 202.036C24.8514 201.05 24.2282 200.739 23.3454 200.791C22.6702 200.791 20.4371 200.843 18.983 200.791C18.1002 200.739 17.6847 201.05 17.5809 201.88L16.75 207.999C16.698 208.31 16.6461 208.829 16.6461 209.244C16.6461 211.837 19.5543 211.111 19.5543 212.77C19.5543 213.652 18.8792 214.274 17.8405 214.274C16.6461 214.274 14.9843 214.118 12.5954 214.118C10.2065 214.118 8.59661 214.274 7.35024 214.274C6.41546 214.274 6 213.755 6 213.133ZM22.6702 197.68C29.8888 197.68 34.0434 194.724 34.0434 188.19C34.0434 183.212 30.2523 180.567 24.9552 180.567C21.7355 180.567 20.541 181.137 20.2814 183.108L18.4637 195.865C18.256 197.265 19.0869 197.68 22.6702 197.68Z" fill="white"/>
<path d="M44.6376 203.28C44.6376 194.672 51.4926 187.723 60.7885 187.723C68.2148 187.723 73.2003 192.287 73.2003 199.391C73.2003 207.999 66.2933 215 57.0494 215C49.6231 215 44.6376 210.385 44.6376 203.28ZM58.7112 211.629C63.1774 211.629 66.3972 207.221 66.3972 201.206C66.3972 195.554 63.489 191.042 59.1267 191.042C54.7644 191.042 51.4407 195.554 51.4407 201.517C51.4407 207.118 54.245 211.629 58.7112 211.629Z" fill="white"/>
<path d="M78.809 209.762C78.809 207.844 79.3283 206.807 80.0553 201.465L81.4056 191.768H78.4454C77.6145 191.768 76.9913 191.353 76.9913 190.523C76.9913 189.538 77.9261 189.02 78.9128 188.553C82.1846 187.153 83.8983 184.975 85.9237 180.774C86.5988 179.478 87.0662 178.7 88.1048 178.7C88.8319 178.7 89.4031 179.27 89.2473 180.359L88.0529 188.501H95.9466C96.6217 188.501 96.8814 188.812 96.8814 189.486C96.8814 189.901 96.7775 190.523 96.6217 190.886C96.414 191.457 96.0504 191.768 95.2715 191.768H87.5855L85.7679 204.629C85.5082 206.495 85.4563 207.325 85.4563 207.999C85.4563 209.918 86.8065 210.696 88.1048 210.696C89.5589 210.696 90.7534 209.866 91.8959 208.933C92.4671 208.518 92.8826 208.103 93.4538 208.103C94.1809 208.103 94.6483 208.673 94.6483 209.399C94.6483 210.385 93.9212 211.163 92.9345 212.044C90.8572 213.859 88.2606 214.793 85.6121 214.793C80.8343 214.793 78.809 211.889 78.809 209.762Z" fill="white"/>
<path d="M100.465 209.762C100.465 207.844 100.984 206.807 101.711 201.465L103.061 191.768H100.101C99.2702 191.768 98.647 191.353 98.647 190.523C98.647 189.538 99.5818 189.02 100.568 188.553C103.84 187.153 105.554 184.975 107.579 180.774C108.254 179.478 108.722 178.7 109.76 178.7C110.488 178.7 111.059 179.27 110.903 180.359L109.709 188.501H117.602C118.277 188.501 118.537 188.812 118.537 189.486C118.537 189.901 118.433 190.523 118.277 190.886C118.07 191.457 117.706 191.768 116.927 191.768H109.241L107.424 204.629C107.164 206.495 107.112 207.325 107.112 207.999C107.112 209.918 108.462 210.696 109.76 210.696C111.215 210.696 112.409 209.866 113.552 208.933C114.123 208.518 114.538 208.103 115.109 208.103C115.837 208.103 116.304 208.673 116.304 209.399C116.304 210.385 115.577 211.163 114.59 212.044C112.513 213.859 109.916 214.793 107.268 214.793C102.49 214.793 100.465 211.889 100.465 209.762Z" fill="white"/>
<path d="M119.524 203.28C119.524 194.827 126.639 187.827 134.636 187.827C140.816 187.827 144.036 192.235 144.036 196.072C144.036 198.198 142.582 199.598 140.868 200.117L126.535 204.369C127.625 207.999 130.326 210.592 134.169 210.592C136.713 210.592 139.206 209.503 141.335 207.636C142.166 206.962 142.478 206.807 142.893 206.807C143.62 206.807 144.036 207.481 144.036 208.051C144.036 208.57 143.776 209.192 143.257 209.866C141.231 212.407 136.402 214.896 131.26 214.896C124.509 214.896 119.524 210.488 119.524 203.28ZM126.067 201.31L135.675 198.354C136.973 197.991 137.752 197.057 137.752 195.813C137.752 193.687 136.35 191.301 133.39 191.301C129.547 191.301 126.067 195.294 126.067 200.791V201.31Z" fill="white"/>
<path d="M149.489 212.926C149.489 211.681 151.981 198.458 151.981 195.709C151.981 193.531 148.71 194.465 148.71 192.598C148.71 191.561 149.644 191.198 153.332 189.59C156.24 188.345 157.019 188.086 157.694 188.086C158.473 188.086 158.992 188.76 158.992 189.642C158.992 190.005 158.94 190.368 158.888 191.042C158.681 192.287 158.525 193.531 158.317 194.776C160.602 190.783 164.445 187.931 167.405 187.931C170.002 187.931 171.767 189.694 171.767 192.235C171.767 194.413 170.261 196.435 168.288 196.435C165.276 196.435 165.432 193.479 163.562 193.479C162.056 193.479 158.057 196.902 157.071 203.488C156.707 206.392 156.344 209.244 156.032 211.992C155.824 213.911 154.89 214.43 151.566 214.43C150.268 214.43 149.489 214.015 149.489 212.926Z" fill="white"/>
<path d="M172.702 203.54C172.702 194.672 179.557 187.775 187.243 187.775C190.619 187.775 193.164 189.071 194.825 190.938L195.76 184.145C195.812 183.626 195.916 183.056 195.916 182.589C195.916 180.411 192.281 181.241 192.281 179.374C192.281 178.337 193.164 177.974 197.11 176.366C200.071 175.174 200.901 174.966 201.628 174.966C202.407 174.966 202.927 175.588 202.927 176.366C202.927 176.833 202.875 177.196 202.771 177.87L198.824 206.132C198.72 206.858 198.668 207.533 198.668 207.999C198.668 208.985 199.188 209.555 199.967 209.555C200.798 209.555 201.317 208.985 201.888 208.985C202.511 208.985 203.031 209.451 203.031 210.333C203.031 212.563 199.967 214.637 196.903 214.637C194.41 214.637 192.385 213.237 192.385 210.281V209.918C190.203 212.718 186.828 214.896 182.569 214.896C177.013 214.896 172.702 210.644 172.702 203.54ZM185.633 210.437C189.009 210.437 192.488 207.74 193.164 203.073C193.371 201.258 193.631 199.702 193.631 198.406C193.631 194.724 191.865 191.042 187.815 191.042C183.296 191.042 179.402 196.228 179.402 202.295C179.402 207.325 182.206 210.437 185.633 210.437Z" fill="white"/>
<path d="M206.562 203.591C206.562 194.672 213.313 187.775 220.999 187.775C225.102 187.775 227.075 189.745 228.529 189.745C229.984 189.745 231.853 188.034 233.048 188.034C233.878 188.034 234.346 188.708 234.19 189.694L231.905 206.081C231.801 206.807 231.749 207.636 231.749 207.896C231.749 208.933 232.217 209.503 232.996 209.503C233.827 209.503 234.294 208.933 234.917 208.933C235.54 208.933 236.008 209.451 236.008 210.281C236.008 212.511 232.944 214.585 229.88 214.585C227.387 214.585 225.465 213.133 225.465 210.385V209.918C223.388 212.718 220.116 214.896 216.273 214.896C210.821 214.896 206.562 210.644 206.562 203.591ZM219.234 210.437C222.09 210.437 225.414 207.999 226.192 202.865C226.452 200.895 226.712 199.235 226.712 197.576C226.712 193.427 224.531 191.042 221.519 191.042C217.104 191.042 213.261 196.228 213.261 202.295C213.261 207.273 215.962 210.437 219.234 210.437Z" fill="white"/>
<path d="M274.645 209.607C274.645 208.155 275.164 201.984 275.164 199.028C275.164 194.516 274.178 192.805 271.945 192.805C269.556 192.805 266.751 194.828 265.713 199.91C265.193 203.436 264.882 206.444 264.311 211.992C264.051 213.911 263.168 214.43 259.844 214.43C258.546 214.43 257.767 214.015 257.767 212.926C257.767 210.748 259.793 201.102 259.793 197.524C259.793 194.931 258.858 192.805 256.157 192.805C253.457 192.805 250.133 195.139 249.302 200.065C248.679 204.629 248.212 207.896 247.796 211.992C247.537 213.911 246.654 214.43 243.33 214.43C242.032 214.43 241.253 214.015 241.253 212.926C241.253 211.733 243.745 198.458 243.745 195.709C243.745 193.531 240.474 194.465 240.474 192.598C240.474 191.509 241.409 191.198 245.096 189.59C248.16 188.294 248.731 188.086 249.458 188.086C250.237 188.086 250.756 188.76 250.756 189.642C250.756 189.746 250.756 190.212 250.601 191.094C250.497 191.768 250.393 192.39 250.341 193.013C252.522 190.109 255.586 187.931 259.325 187.931C263.272 187.931 265.245 190.42 265.869 193.531C268.05 190.16 271.373 187.931 274.853 187.931C278.125 187.931 281.396 189.797 281.396 195.917C281.396 198.406 280.877 205.043 280.877 207.118C280.877 209.192 281.396 209.711 282.279 209.711C283.318 209.711 283.837 209.036 284.512 209.036C285.135 209.036 285.655 209.503 285.655 210.281C285.655 212.2 282.435 214.533 279.371 214.533C276.515 214.533 274.645 212.77 274.645 209.607Z" fill="white"/>
</g>
<defs>
<clipPath id="clip0_20_415">
<rect width="340" height="215" fill="white" transform="translate(6)"/>
</clipPath>
</defs>
</svg>
