<svg width="353" height="215" viewBox="0 0 353 215" fill="none" xmlns="http://www.w3.org/2000/svg">
<g clip-path="url(#clip0_20_415)">
<path d="M12.893 37.3416H3.06726V0H12.893V37.3416Z" fill="white"/>
<path d="M29.1134 37.3416H20.2234V9.36139H28.3855V12.7939C29.46 11.5457 30.621 10.5749 31.8687 9.88146C33.1165 9.18803 34.6415 8.84131 36.4437 8.84131C38.246 8.84131 39.7796 9.20536 41.1486 9.93347C42.5177 10.6616 43.5834 11.7364 44.3459 13.158C45.559 11.8058 46.85 10.7483 48.219 9.98548C49.5881 9.2227 51.295 8.84131 53.3399 8.84131C56.1126 8.84131 58.3827 9.74278 60.1503 11.5457C61.9179 13.3486 62.8017 15.949 62.8017 19.3469V37.3416H53.9118V22.1033C53.9118 20.4737 53.5912 19.1908 52.95 18.2547C52.3088 17.3186 51.347 16.8505 50.0646 16.8505C49.3368 16.8505 48.6609 17.0325 48.0371 17.3966C47.4132 17.7606 46.9107 18.3327 46.5294 19.1128C46.1482 19.893 45.9576 20.9071 45.9576 22.1553V37.3416H37.0676V22.1033C37.0676 20.4737 36.747 19.1908 36.1058 18.2547C35.4646 17.3186 34.5028 16.8505 33.2204 16.8505C32.4579 16.8505 31.7648 17.0325 31.1409 17.3966C30.5171 17.7606 30.0232 18.3327 29.6593 19.1128C29.2953 19.893 29.1134 20.9071 29.1134 22.1553V37.3416Z" fill="white"/>
<path d="M98.1017 23.3515C98.1017 26.0559 97.5818 28.5002 96.5421 30.6846C95.5023 32.8689 94.0553 34.6111 92.2011 35.9113C90.3468 37.2115 88.1546 37.8616 85.6245 37.8616C84.1689 37.8616 82.8172 37.6016 81.5695 37.0815C80.3218 36.5614 79.1433 35.7813 78.0343 34.7412V47.379H69.1443V9.36139H77.3064V12.5339C78.4502 11.3203 79.7152 10.4015 81.1016 9.77745C82.4879 9.15335 83.9956 8.84131 85.6245 8.84131C88.1546 8.84131 90.3468 9.49141 92.2011 10.7916C94.0553 12.0918 95.5023 13.8427 96.5421 16.0444C97.5818 18.246 98.1017 20.6817 98.1017 23.3515ZM88.8478 23.3515C88.8478 21.1671 88.2933 19.5376 87.1842 18.4627C86.0751 17.3879 84.8447 16.8505 83.493 16.8505C82.5919 16.8505 81.7254 17.0932 80.8936 17.5786C80.0618 18.064 79.3946 18.7835 78.8921 19.7369C78.3895 20.6904 78.1382 21.9126 78.1382 23.4035C78.1382 24.8944 78.3982 26.1165 78.9181 27.07C79.438 28.0235 80.1051 28.7256 80.9196 29.1763C81.7341 29.6271 82.5919 29.8524 83.493 29.8524C84.8447 29.8524 86.0751 29.3237 87.1842 28.2662C88.2933 27.2087 88.8478 25.5705 88.8478 23.3515Z" fill="white"/>
<path d="M119.313 37.3416V34.6371C118.342 35.7466 117.216 36.5614 115.934 37.0815C114.651 37.6016 113.109 37.8616 111.307 37.8616C108.395 37.8616 106.047 37.0555 104.262 35.4433C102.477 33.831 101.585 31.7074 101.585 29.0723C101.585 26.4373 102.659 24.2443 104.808 22.8054C106.957 21.3665 110.024 20.6471 114.01 20.6471C114.773 20.6471 115.5 20.6731 116.194 20.7251C116.887 20.7771 117.528 20.8551 118.117 20.9591V19.6069C118.117 18.3934 117.779 17.4573 117.103 16.7985C116.428 16.1397 115.466 15.8103 114.218 15.8103C112.97 15.8103 112.043 16.1397 111.333 16.7985C110.622 17.4573 110.18 18.3934 110.007 19.6069H102.001C102.174 17.4226 102.798 15.5243 103.872 13.9121C104.947 12.2998 106.377 11.0516 108.161 10.1675C109.946 9.28337 111.983 8.84131 114.27 8.84131C118.117 8.84131 121.115 9.82946 123.264 11.8057C125.413 13.782 126.487 16.5385 126.487 20.075V37.3416H119.313ZM109.955 28.8123C109.955 29.7137 110.258 30.4245 110.865 30.9446C111.471 31.4647 112.312 31.7247 113.386 31.7247C114.877 31.7247 116.038 31.3953 116.87 30.7366C117.701 30.0778 118.117 29.1763 118.117 28.0322V26.2639C117.459 26.1252 116.852 26.0299 116.298 25.9779C115.743 25.9259 115.171 25.8998 114.582 25.8998C113.092 25.8998 111.948 26.1425 111.151 26.628C110.354 27.1134 109.955 27.8415 109.955 28.8123Z" fill="white"/>
<path d="M145.151 37.8616C142.378 37.8616 139.935 37.2462 137.821 36.0154C135.707 34.7845 134.052 33.0769 132.856 30.8926C131.66 28.7083 131.062 26.1946 131.062 23.3515C131.062 20.5084 131.677 18.0987 132.908 15.9144C134.138 13.73 135.819 12.0051 137.951 10.7396C140.082 9.47407 142.482 8.84131 145.151 8.84131C147.82 8.84131 150.021 9.38739 152.066 10.4796C154.11 11.5717 155.774 13.0886 157.056 15.0302C158.339 16.9719 159.101 19.2429 159.344 21.8432H149.882C149.813 20.3177 149.353 19.1042 148.504 18.2027C147.655 17.3012 146.555 16.8505 145.203 16.8505C144.163 16.8505 143.279 17.1105 142.552 17.6306C141.824 18.1507 141.261 18.8875 140.862 19.8409C140.463 20.7944 140.264 21.9646 140.264 23.3515C140.264 24.7383 140.455 25.9258 140.836 26.914C141.217 27.9021 141.781 28.6476 142.526 29.1503C143.271 29.6531 144.163 29.9044 145.203 29.9044C146.589 29.9044 147.69 29.4624 148.504 28.5782C149.319 27.6941 149.778 26.4546 149.882 24.8597H159.344C159.101 27.5294 158.356 29.8351 157.108 31.7767C155.861 33.7183 154.223 35.2179 152.195 36.2754C150.168 37.3329 147.82 37.8616 145.151 37.8616Z" fill="white"/>
<path d="M182.947 28.6043V36.3534C181.976 36.9082 180.988 37.2982 179.983 37.5236C178.978 37.749 177.852 37.8616 176.604 37.8616C174.524 37.8616 172.74 37.4629 171.249 36.6655C169.759 35.868 168.615 34.7065 167.818 33.1809C167.021 31.6554 166.622 29.8351 166.622 27.7201V17.1105H161.423V9.36139H166.622V1.14417H175.512V9.36139H183.155V17.1105H175.512V25.6398C175.512 26.992 175.807 27.9888 176.396 28.6303C176.985 29.2717 177.886 29.5924 179.099 29.5924C179.827 29.5924 180.529 29.5057 181.205 29.3324C181.881 29.159 182.461 28.9163 182.947 28.6043Z" fill="white"/>
<path d="M210.084 37.3416H200.259V0H225.681V8.52927H210.084V15.4463H223.133V23.9756H210.084V37.3416Z" fill="white"/>
<path d="M242.733 37.8616C240.653 37.8616 238.73 37.4889 236.962 36.7435C235.195 35.998 233.652 34.9579 232.335 33.623C231.018 32.2881 229.987 30.7452 229.242 28.9943C228.497 27.2434 228.124 25.3624 228.124 23.3515C228.124 21.3405 228.497 19.4596 229.242 17.7086C229.987 15.9577 231.018 14.4148 232.335 13.0799C233.652 11.7451 235.195 10.7049 236.962 9.95947C238.73 9.21403 240.653 8.84131 242.733 8.84131C244.812 8.84131 246.736 9.21403 248.504 9.95947C250.271 10.7049 251.814 11.7451 253.131 13.0799C254.448 14.4148 255.479 15.9577 256.224 17.7086C256.969 19.4596 257.342 21.3405 257.342 23.3515C257.342 25.3624 256.969 27.2434 256.224 28.9943C255.479 30.7452 254.448 32.2881 253.131 33.623C251.814 34.9579 250.271 35.998 248.504 36.7435C246.736 37.4889 244.812 37.8616 242.733 37.8616ZM242.733 29.9044C243.669 29.9044 244.544 29.6617 245.358 29.1763C246.173 28.6909 246.831 27.9628 247.334 26.992C247.836 26.0212 248.088 24.8077 248.088 23.3515C248.088 21.8953 247.836 20.6817 247.334 19.7109C246.831 18.7401 246.173 18.0207 245.358 17.5526C244.544 17.0845 243.669 16.8505 242.733 16.8505C241.797 16.8505 240.965 17.0845 240.134 17.5526C239.302 18.0207 238.635 18.7401 238.132 19.7109C237.629 20.6817 237.378 21.8953 237.378 23.3515C237.378 24.8077 237.629 26.0212 238.132 26.992C238.635 27.9628 239.302 28.6909 240.134 29.1763C240.965 29.6617 241.832 29.9044 242.733 29.9044Z" fill="white"/>
<path d="M271.067 22.6234V37.3416H262.177V9.36139H270.339V12.7419C271.448 11.5284 272.669 10.5749 274.004 9.88146C275.338 9.18803 276.889 8.84131 278.657 8.84131C281.43 8.84131 283.691 9.74278 285.441 11.5457C287.192 13.3486 288.067 15.949 288.067 19.3469V37.3416H279.177V22.3113C279.177 20.5431 278.856 19.1908 278.215 18.2547C277.574 17.3186 276.577 16.8505 275.226 16.8505C274.498 16.8505 273.813 17.0412 273.172 17.4226C272.531 17.804 272.02 18.4107 271.638 19.2429C271.257 20.075 271.067 21.2018 271.067 22.6234Z" fill="white"/>
<path d="M292.642 23.3515C292.642 20.6471 293.161 18.194 294.201 15.9924C295.241 13.7907 296.697 12.0485 298.568 10.7656C300.44 9.48275 302.623 8.84132 305.119 8.84132C306.574 8.84132 307.935 9.10136 309.2 9.62143C310.465 10.1415 311.635 10.9216 312.709 11.9618V0H321.599V37.3416H313.437V34.1691C312.293 35.3479 311.028 36.2581 309.642 36.8995C308.255 37.5409 306.748 37.8616 305.119 37.8616C302.623 37.8616 300.44 37.2115 298.568 35.9113C296.697 34.6112 295.241 32.8602 294.201 30.6586C293.161 28.4569 292.642 26.0212 292.642 23.3515ZM301.896 23.3515C301.896 25.5358 302.45 27.1654 303.559 28.2402C304.668 29.315 305.899 29.8524 307.25 29.8524C308.186 29.8524 309.061 29.6097 309.876 29.1243C310.69 28.6389 311.349 27.9108 311.851 26.94C312.354 25.9692 312.605 24.7557 312.605 23.2995C312.605 21.8433 312.345 20.5864 311.825 19.6329C311.305 18.6794 310.638 17.9773 309.824 17.5266C309.009 17.0759 308.151 16.8505 307.25 16.8505C305.899 16.8505 304.668 17.3706 303.559 18.4107C302.45 19.4509 301.896 21.0978 301.896 23.3515Z" fill="white"/>
<path d="M353 27.8241C353 30.9099 351.891 33.3543 349.673 35.1572C347.455 36.9602 344.231 37.8616 340.003 37.8616C335.775 37.8616 332.569 36.9342 330.281 35.0792C327.994 33.2243 326.711 30.6846 326.434 27.4601H334.96C334.96 28.6389 335.445 29.5751 336.416 30.2685C337.386 30.9619 338.634 31.3087 340.159 31.3087C341.164 31.3087 342.057 31.17 342.836 30.8926C343.616 30.6152 344.006 30.1125 344.006 29.3844C344.006 28.7603 343.772 28.2922 343.304 27.9802C342.836 27.6681 342.117 27.4254 341.147 27.2521L335.636 26.2639C333.21 25.8132 331.269 24.8944 329.813 23.5075C328.358 22.1206 327.63 20.3003 327.63 18.0467C327.63 16.2437 328.115 14.6488 329.085 13.262C330.056 11.8751 331.434 10.7916 333.219 10.0115C335.003 9.23137 337.109 8.84131 339.535 8.84131C341.961 8.84131 344.162 9.2487 346.034 10.0635C347.905 10.8783 349.404 12.0485 350.531 13.574C351.657 15.0996 352.307 16.9025 352.48 18.9828H343.954C343.85 17.8733 343.4 16.9979 342.602 16.3564C341.805 15.715 340.8 15.3943 339.587 15.3943C338.547 15.3943 337.716 15.5416 337.092 15.8363C336.468 16.1311 336.156 16.5905 336.156 17.2146C336.156 17.804 336.381 18.22 336.832 18.4627C337.282 18.7054 337.941 18.9135 338.807 19.0868L344.734 20.179C347.437 20.6644 349.491 21.5572 350.895 22.8574C352.298 24.1576 353 25.8132 353 27.8241Z" fill="white"/>
<path d="M0 95.2435C0 93.0072 3.37923 94.3074 3.89912 90.6668L7.4863 65.3391C7.53829 64.975 7.53829 64.611 7.53829 64.2989C7.53829 61.6985 4.67894 62.3746 4.67894 60.7104C4.67894 59.8262 5.35479 59.2542 6.49853 59.2542C7.64227 59.2542 8.99396 59.4102 11.4894 59.4102C13.9848 59.4102 16.7402 59.1501 19.5476 59.1501C30.985 59.1501 38.5753 65.9632 38.5753 76.1047C38.5753 87.9104 29.4773 96.4397 16.8442 96.4397C13.5169 96.4397 10.3457 96.2317 6.91443 96.2317C4.21105 96.2317 2.59941 96.3877 1.35169 96.3877C0.415906 96.3877 0 95.8676 0 95.2435ZM14.5567 92.9552H16.3243C25.2143 92.9552 31.1409 85.9861 31.1409 75.4806C31.1409 67.7834 26.7219 62.5827 19.0277 62.5827H18.2479C15.2845 62.5827 14.5047 63.2588 14.2968 65.027L10.7616 89.8867C10.7096 90.2508 10.6576 90.7188 10.6576 91.1869C10.6576 92.4351 11.4894 92.9552 14.5567 92.9552Z" fill="white"/>
<path d="M44.2939 89.3146C44.2939 89.0026 44.3459 88.0144 44.6059 86.3502L45.5936 79.3291C45.6456 78.7571 45.7496 78.133 45.7496 77.7689C45.7496 75.5326 42.4224 76.4167 42.4224 74.5444C42.4224 73.5563 42.9422 73.2963 47.0493 71.58C50.0646 70.3838 50.7925 70.1238 51.4683 70.1238C52.1962 70.1238 52.768 70.7999 52.768 71.632C52.768 72.0481 52.716 72.4641 52.6121 73.1402L50.8964 85.206C50.7925 85.9861 50.6885 86.7663 50.6885 87.7024C50.6885 90.6148 52.1961 92.2271 54.9515 92.2271C58.1228 92.2271 61.3981 90.0427 62.2819 85.206L63.1137 79.3291C63.2176 78.7571 63.2696 78.185 63.2696 77.7689C63.2696 75.5326 59.6825 76.4687 59.6825 74.5444C59.6825 73.4003 60.7742 73.0362 64.4654 71.58C67.5847 70.3318 68.3645 70.1238 68.9364 70.1238C69.7162 70.1238 70.2881 70.7479 70.2881 71.632C70.2881 72.1001 70.288 72.4641 70.1841 73.0882L68.0526 88.1705C67.9486 88.8986 67.8966 89.7307 67.8966 90.0427C67.8966 90.9789 68.4165 91.603 69.2483 91.603C69.9761 91.603 70.6 91.0309 71.1719 91.0309C71.7957 91.0309 72.2636 91.551 72.2636 92.3831C72.2636 94.6194 69.1443 96.6997 66.181 96.6997C63.6855 96.6997 61.71 95.2955 61.71 92.3311V92.019C59.6305 94.7234 56.1992 97.0118 51.9362 97.0118C47.4132 97.0118 44.2939 94.2034 44.2939 89.3146Z" fill="white"/>
<path d="M78.2423 89.3146C78.2423 89.0026 78.2943 88.0144 78.5542 86.3502L79.542 79.3291C79.594 78.7571 79.698 78.133 79.698 77.7689C79.698 75.5326 76.3707 76.4167 76.3707 74.5444C76.3707 73.5563 76.8906 73.2963 80.9977 71.58C84.013 70.3838 84.7408 70.1238 85.4167 70.1238C86.1445 70.1238 86.7164 70.7999 86.7164 71.632C86.7164 72.0481 86.6644 72.4641 86.5604 73.1402L84.8448 85.206C84.7408 85.9861 84.6369 86.7663 84.6369 87.7024C84.6369 90.6148 86.1445 92.2271 88.8999 92.2271C92.0712 92.2271 95.3464 90.0427 96.2302 85.206L97.062 79.3291C97.166 78.7571 97.218 78.185 97.218 77.7689C97.218 75.5326 93.6308 76.4687 93.6308 74.5444C93.6308 73.4003 94.7226 73.0362 98.4137 71.58C101.533 70.3318 102.313 70.1238 102.885 70.1238C103.665 70.1238 104.236 70.7479 104.236 71.632C104.236 72.1001 104.236 72.4641 104.132 73.0882L102.001 88.1705C101.897 88.8986 101.845 89.7307 101.845 90.0427C101.845 90.9789 102.365 91.603 103.197 91.603C103.924 91.603 104.548 91.0309 105.12 91.0309C105.744 91.0309 106.212 91.551 106.212 92.3831C106.212 94.6194 103.093 96.6997 100.129 96.6997C97.6339 96.6997 95.6584 95.2955 95.6584 92.3311V92.019C93.5788 94.7234 90.1476 97.0118 85.8846 97.0118C81.3616 97.0118 78.2423 94.2034 78.2423 89.3146Z" fill="white"/>
<path d="M111.567 95.0355C111.567 93.7873 114.062 80.5253 114.062 77.7689C114.062 75.5846 110.787 76.5208 110.787 74.6485C110.787 73.6083 111.723 73.2443 115.414 71.632C118.325 70.3838 119.105 70.1238 119.781 70.1238C120.561 70.1238 121.081 70.7999 121.081 71.684C121.081 72.0481 121.029 72.4121 120.977 73.0882C120.769 74.3364 120.613 75.5846 120.405 76.8328C122.692 72.8282 126.539 69.9678 129.503 69.9678C132.102 69.9678 133.87 71.736 133.87 74.2844C133.87 76.4687 132.362 78.497 130.386 78.497C127.371 78.497 127.527 75.5326 125.655 75.5326C124.148 75.5326 120.145 78.9651 119.157 85.5701C118.793 88.4825 118.429 91.343 118.117 94.0994C117.909 96.0236 116.973 96.5437 113.646 96.5437C112.347 96.5437 111.567 96.1277 111.567 95.0355Z" fill="white"/>
<path d="M140.472 94.9315C138.393 94.9315 136.521 96.3877 135.065 96.3877C133.974 96.3877 133.142 95.6076 133.142 94.7234C133.142 94.0993 133.298 93.5793 134.078 92.8512C139.692 87.1303 146.399 80.6293 151.286 74.6485C149.466 74.0764 147.958 73.5563 146.555 73.5563C142.084 73.5563 143.072 78.237 139.588 78.237C137.717 78.237 136.469 76.9888 136.469 75.1685C136.469 72.3601 139.432 70.1238 144.111 70.1238C148.062 70.1238 151.858 71.736 153.937 71.736C155.809 71.736 157.68 70.4358 159.032 70.4358C160.02 70.4358 160.644 71.1119 160.644 71.892C160.644 72.4641 160.384 73.0362 159.812 73.6603C155.133 78.445 147.283 86.3502 142.656 91.967C144.943 92.5391 146.763 93.1112 148.322 93.1112C153.209 93.1112 152.585 88.1185 156.173 88.1185C158.044 88.1185 159.188 89.5747 159.188 91.2909C159.188 94.3594 155.705 96.7517 150.818 96.7517C146.711 96.7517 142.76 94.9315 140.472 94.9315Z" fill="white"/>
<path d="M163.139 85.6741C163.139 76.7288 169.898 69.8118 177.592 69.8118C181.699 69.8118 183.674 71.7881 185.13 71.7881C186.586 71.7881 188.457 70.0718 189.653 70.0718C190.485 70.0718 190.953 70.7479 190.797 71.7361L188.509 88.1705C188.405 88.8986 188.353 89.7307 188.353 89.9908C188.353 91.0309 188.821 91.603 189.601 91.603C190.433 91.603 190.901 91.0309 191.525 91.0309C192.148 91.0309 192.616 91.551 192.616 92.3831C192.616 94.6195 189.549 96.6998 186.482 96.6998C183.986 96.6998 182.063 95.2436 182.063 92.4871V92.0191C179.983 94.8275 176.708 97.0118 172.861 97.0118C167.402 97.0118 163.139 92.7472 163.139 85.6741ZM175.824 92.5392C178.684 92.5392 182.011 90.0948 182.791 84.946C183.051 82.9697 183.31 81.3055 183.31 79.6412C183.31 75.4806 181.127 73.0883 178.112 73.0883C173.693 73.0883 169.846 78.289 169.846 84.3739C169.846 89.3667 172.549 92.5392 175.824 92.5392Z" fill="white"/>
<path d="M231.296 91.707C231.296 90.2508 231.816 84.0619 231.816 81.0974C231.816 76.5728 230.828 74.8565 228.592 74.8565C226.201 74.8565 223.393 76.8848 222.354 81.9816C221.834 85.5181 221.522 88.5345 220.95 94.0994C220.69 96.0236 219.806 96.5437 216.479 96.5437C215.179 96.5437 214.399 96.1277 214.399 95.0355C214.399 92.8512 216.427 83.1777 216.427 79.5892C216.427 76.9888 215.491 74.8565 212.788 74.8565C210.084 74.8565 206.757 77.1969 205.925 82.1376C205.302 86.7143 204.834 89.9907 204.418 94.0994C204.158 96.0236 203.274 96.5437 199.947 96.5437C198.647 96.5437 197.867 96.1277 197.867 95.0355C197.867 93.8393 200.363 80.5253 200.363 77.7689C200.363 75.5846 197.087 76.5208 197.087 74.6485C197.087 73.5563 198.023 73.2443 201.714 71.632C204.782 70.3318 205.354 70.1238 206.081 70.1238C206.861 70.1238 207.381 70.7999 207.381 71.684C207.381 71.788 207.381 72.2561 207.225 73.1402C207.121 73.8163 207.017 74.4404 206.965 75.0645C209.149 72.1521 212.216 69.9678 215.959 69.9678C219.91 69.9678 221.886 72.4641 222.51 75.5846C224.693 72.2041 228.02 69.9678 231.504 69.9678C234.779 69.9678 238.054 71.8401 238.054 77.977C238.054 80.4733 237.534 87.1303 237.534 89.2106C237.534 91.2909 238.054 91.811 238.938 91.811C239.978 91.811 240.498 91.1349 241.173 91.1349C241.797 91.1349 242.317 91.603 242.317 92.3831C242.317 94.3074 239.094 96.6477 236.027 96.6477C233.167 96.6477 231.296 94.8795 231.296 91.707Z" fill="white"/>
<path d="M245.021 85.3621C245.021 76.8848 252.143 69.8638 260.149 69.8638C266.336 69.8638 269.559 74.2844 269.559 78.133C269.559 80.2653 268.103 81.6695 266.388 82.1896L252.039 86.4542C253.131 90.0948 255.834 92.6952 259.681 92.6952C262.229 92.6952 264.724 91.603 266.856 89.7307C267.687 89.0546 267.999 88.8986 268.415 88.8986C269.143 88.8986 269.559 89.5747 269.559 90.1468C269.559 90.6669 269.299 91.291 268.779 91.9671C266.752 94.5154 261.917 97.0118 256.77 97.0118C250.011 97.0118 245.021 92.5912 245.021 85.3621ZM251.571 83.3858L261.189 80.4213C262.489 80.0573 263.268 79.1211 263.268 77.873C263.268 75.7406 261.865 73.3483 258.901 73.3483C255.054 73.3483 251.571 77.3529 251.571 82.8657V83.3858Z" fill="white"/>
<path d="M13.5169 153.822L6.03063 124.437C5.09484 120.797 2.28748 121.369 2.28748 119.6C2.28748 118.664 3.11929 118.196 3.89911 118.196C5.09484 118.196 6.75846 118.352 9.14992 118.352C11.5414 118.352 13.7769 118.196 15.3885 118.196C16.3763 118.196 17.0521 118.56 17.0521 119.34C17.0521 121.629 12.8411 120.849 12.8411 123.553C12.8411 124.177 13.049 125.113 13.257 125.997L19.0797 149.089L31.7128 125.633C32.3367 124.437 32.6486 123.553 32.6486 123.033C32.6486 120.953 29.2174 121.317 29.2174 119.705C29.2174 118.768 30.0492 118.196 31.2969 118.196C32.8565 118.196 34.4162 118.352 36.2358 118.352C37.8994 118.352 39.615 118.196 40.7588 118.196C41.5386 118.196 42.0585 118.612 42.0585 119.236C42.0585 121.525 38.9392 120.433 36.9116 124.281L20.8993 153.822C20.1194 155.278 19.2876 155.798 16.8962 155.798C14.3487 155.798 13.8289 155.174 13.5169 153.822Z" fill="white"/>
<path d="M36.5477 144.304C36.5477 135.671 43.4102 128.702 52.7161 128.702C60.1504 128.702 65.1413 133.278 65.1413 140.404C65.1413 149.037 58.2268 156.058 48.9729 156.058C41.5386 156.058 36.5477 151.429 36.5477 144.304ZM50.6365 152.677C55.1075 152.677 58.3308 148.257 58.3308 142.224C58.3308 136.555 55.4195 132.03 51.0524 132.03C46.6854 132.03 43.3582 136.555 43.3582 142.536C43.3582 148.153 46.1655 152.677 50.6365 152.677Z" fill="white"/>
<path d="M68.7804 144.304C68.7804 135.827 75.9028 128.806 83.909 128.806C90.0956 128.806 93.3188 133.227 93.3188 137.075C93.3188 139.207 91.8632 140.612 90.1476 141.132L75.7988 145.396C76.8906 149.037 79.5939 151.637 83.4411 151.637C85.9885 151.637 88.4839 150.545 90.6154 148.673C91.4473 147.997 91.7592 147.841 92.1751 147.841C92.9029 147.841 93.3188 148.517 93.3188 149.089C93.3188 149.609 93.0589 150.233 92.539 150.909C90.5115 153.458 85.6766 155.954 80.5297 155.954C73.7713 155.954 68.7804 151.533 68.7804 144.304ZM75.3309 142.328L84.9487 139.363C86.2484 138.999 87.0283 138.063 87.0283 136.815C87.0283 134.683 85.6246 132.29 82.6613 132.29C78.8141 132.29 75.3309 136.295 75.3309 141.808V142.328Z" fill="white"/>
<path d="M97.01 144.564C97.01 135.671 103.872 128.754 111.567 128.754C114.946 128.754 117.493 130.054 119.157 131.926L120.093 125.113C120.145 124.593 120.249 124.021 120.249 123.553C120.249 121.369 116.61 122.201 116.61 120.329C116.61 119.288 117.493 118.924 121.444 117.312C124.408 116.116 125.24 115.908 125.967 115.908C126.747 115.908 127.267 116.532 127.267 117.312C127.267 117.78 127.215 118.144 127.111 118.82L123.16 147.165C123.056 147.893 123.004 148.569 123.004 149.037C123.004 150.025 123.524 150.597 124.304 150.597C125.136 150.597 125.656 150.025 126.227 150.025C126.851 150.025 127.371 150.493 127.371 151.377C127.371 153.614 124.304 155.694 121.237 155.694C118.741 155.694 116.714 154.29 116.714 151.325V150.961C114.53 153.77 111.151 155.954 106.888 155.954C101.325 155.954 97.01 151.689 97.01 144.564ZM109.955 151.481C113.334 151.481 116.818 148.777 117.493 144.096C117.701 142.276 117.961 140.716 117.961 139.415C117.961 135.723 116.194 132.03 112.139 132.03C107.616 132.03 103.716 137.231 103.716 143.316C103.716 148.361 106.524 151.481 109.955 151.481Z" fill="white"/>
<path d="M130.023 149.193C130.023 146.956 131.53 145.604 133.402 145.604C135.481 145.604 136.157 147.061 136.313 148.777C136.521 150.493 137.405 152.885 141.356 152.885C144.683 152.885 147.023 151.221 147.023 148.933C147.023 146.644 144.423 145.812 141.044 144.512C136.365 142.952 132.414 141.132 132.414 136.971C132.414 132.342 137.301 128.754 143.695 128.754C148.894 128.754 153.521 130.99 153.521 134.787C153.521 136.711 152.378 138.271 150.194 138.271C148.374 138.271 147.439 137.023 147.231 135.255C147.023 133.591 146.555 131.926 143.384 131.926C140.472 131.926 138.393 133.591 138.393 135.723C138.393 137.283 139.536 138.115 144.163 139.727C150.142 141.652 153.313 143.628 153.313 147.477C153.313 152.261 148.166 156.058 140.836 156.058C134.078 156.058 130.023 152.833 130.023 149.193Z" fill="white"/>
<path d="M157.212 144.304C157.212 135.827 164.335 128.806 172.341 128.806C178.528 128.806 181.751 133.227 181.751 137.075C181.751 139.207 180.295 140.612 178.58 141.132L164.231 145.396C165.323 149.037 168.026 151.637 171.873 151.637C174.421 151.637 176.916 150.545 179.047 148.673C179.879 147.997 180.191 147.841 180.607 147.841C181.335 147.841 181.751 148.517 181.751 149.089C181.751 149.609 181.491 150.233 180.971 150.909C178.943 153.458 174.109 155.954 168.962 155.954C162.203 155.954 157.212 151.533 157.212 144.304ZM163.763 142.328L173.381 139.363C174.68 138.999 175.46 138.063 175.46 136.815C175.46 134.683 174.057 132.29 171.093 132.29C167.246 132.29 163.763 136.295 163.763 141.808V142.328Z" fill="white"/>
<path d="M186.222 151.273C186.222 150.805 186.326 149.817 186.43 149.141L189.809 125.113C189.913 124.593 189.965 124.021 189.965 123.553C189.965 121.369 186.638 122.201 186.638 120.381C186.638 119.288 187.47 118.872 191.265 117.364C194.176 116.168 194.956 115.908 195.684 115.908C196.463 115.908 197.035 116.532 197.035 117.312C197.035 117.78 196.931 118.144 196.827 118.82L192.876 147.061C192.772 147.737 192.72 148.517 192.72 148.933C192.72 149.973 193.084 150.545 194.02 150.545C194.852 150.545 195.372 149.973 195.944 149.973C196.567 149.973 197.035 150.493 197.035 151.325C197.035 153.562 194.02 155.642 190.849 155.642C188.249 155.642 186.222 154.186 186.222 151.273Z" fill="white"/>
<path d="M201.714 153.978C201.714 152.729 203.898 139.415 204.262 136.711L205.925 125.113C205.977 124.593 206.081 124.021 206.081 123.553C206.081 121.369 202.754 122.201 202.754 120.381C202.754 119.288 203.586 118.872 207.329 117.364C210.292 116.168 211.072 115.908 211.748 115.908C212.58 115.908 213.1 116.532 213.1 117.312C213.1 117.78 213.048 118.144 212.944 118.82L211.124 132.03C210.708 135.099 210.24 138.219 209.773 141.34C215.231 134.007 220.326 129.222 225.837 129.222C228.54 129.222 229.996 130.626 229.996 132.55C229.996 134.475 228.28 135.775 226.357 135.775C224.433 135.775 223.237 134.423 221.574 134.423C220.43 134.423 219.13 135.255 217.519 136.659C218.87 141.704 220.482 145.812 221.834 148.153C222.926 150.025 223.601 150.493 224.329 150.493C225.889 150.493 226.409 149.089 227.501 149.089C228.124 149.089 228.644 149.557 228.644 150.545C228.644 152.677 226.357 155.642 222.718 155.642C220.326 155.642 218.507 154.342 217.155 151.845C215.543 148.933 214.192 145.24 212.84 141.028C211.488 142.64 210.188 144.408 209.149 145.968C208.837 148.413 208.525 150.753 208.265 153.041C208.057 154.966 207.121 155.486 203.794 155.486C202.494 155.486 201.714 155.07 201.714 153.978Z" fill="white"/>
<path d="M232.179 144.304C232.179 135.827 239.302 128.806 247.308 128.806C253.495 128.806 256.718 133.227 256.718 137.075C256.718 139.207 255.262 140.612 253.547 141.132L239.198 145.396C240.29 149.037 242.993 151.637 246.84 151.637C249.388 151.637 251.883 150.545 254.015 148.673C254.846 147.997 255.158 147.841 255.574 147.841C256.302 147.841 256.718 148.517 256.718 149.089C256.718 149.609 256.458 150.233 255.938 150.909C253.911 153.458 249.076 155.954 243.929 155.954C237.17 155.954 232.179 151.533 232.179 144.304ZM238.73 142.328L248.348 139.363C249.647 138.999 250.427 138.063 250.427 136.815C250.427 134.683 249.024 132.29 246.06 132.29C242.213 132.29 238.73 136.295 238.73 141.808V142.328Z" fill="white"/>
<path d="M262.489 150.805C262.489 148.881 263.008 147.841 263.736 142.484L265.088 132.758H262.125C261.293 132.758 260.669 132.342 260.669 131.51C260.669 130.522 261.605 130.002 262.593 129.534C265.868 128.13 267.583 125.945 269.611 121.733C270.287 120.433 270.755 119.652 271.794 119.652C272.522 119.652 273.094 120.225 272.938 121.317L271.742 129.482H279.645C280.32 129.482 280.58 129.794 280.58 130.47C280.58 130.886 280.476 131.51 280.32 131.874C280.113 132.446 279.749 132.758 278.969 132.758H271.275L269.455 145.656C269.195 147.529 269.143 148.361 269.143 149.037C269.143 150.961 270.495 151.741 271.794 151.741C273.25 151.741 274.446 150.909 275.59 149.973C276.161 149.557 276.577 149.141 277.149 149.141C277.877 149.141 278.345 149.713 278.345 150.441C278.345 151.429 277.617 152.209 276.629 153.093C274.55 154.914 271.95 155.85 269.299 155.85C264.516 155.85 262.489 152.937 262.489 150.805Z" fill="white"/>
<path d="M281.568 144.304C281.568 135.827 288.691 128.806 296.697 128.806C302.883 128.806 306.107 133.227 306.107 137.075C306.107 139.207 304.651 140.612 302.935 141.132L288.587 145.396C289.678 149.037 292.382 151.637 296.229 151.637C298.776 151.637 301.272 150.545 303.403 148.673C304.235 147.997 304.547 147.841 304.963 147.841C305.691 147.841 306.107 148.517 306.107 149.089C306.107 149.609 305.847 150.233 305.327 150.909C303.299 153.458 298.464 155.954 293.317 155.954C286.559 155.954 281.568 151.533 281.568 144.304ZM288.119 142.328L297.736 139.363C299.036 138.999 299.816 138.063 299.816 136.815C299.816 134.683 298.412 132.29 295.449 132.29C291.602 132.29 288.119 136.295 288.119 141.808V142.328Z" fill="white"/>
<path d="M329.345 150.649C329.345 149.245 329.761 143.004 329.761 140.092C329.761 135.515 328.721 133.799 326.33 133.799C323.627 133.799 320.507 136.035 319.572 141.704C319 145.552 318.532 149.401 318.116 153.042C317.908 154.966 316.972 155.486 313.645 155.486C312.345 155.486 311.565 155.07 311.565 153.978C311.565 152.729 314.061 139.467 314.061 136.711C314.061 134.527 310.786 135.463 310.786 133.591C310.786 132.55 311.721 132.186 315.412 130.574C318.324 129.326 319.104 129.066 319.779 129.066C320.559 129.066 321.079 129.742 321.079 130.626C321.079 130.99 321.027 131.354 320.975 132.03L320.663 134.111C322.691 131.146 325.966 128.91 329.449 128.91C332.725 128.91 336.052 130.782 336.052 136.971C336.052 139.415 335.532 146.124 335.532 148.153C335.532 150.337 336.052 150.753 336.988 150.753C338.027 150.753 338.547 150.077 339.275 150.077C339.899 150.077 340.367 150.545 340.367 151.325C340.367 153.25 337.196 155.59 334.076 155.59C331.217 155.59 329.345 153.822 329.345 150.649Z" fill="white"/>
<path d="M0 213.128C0 210.891 3.37923 212.192 3.89912 208.551L7.4863 183.223C7.53829 182.859 7.53829 182.495 7.53829 182.183C7.53829 179.583 4.67894 180.259 4.67894 178.595C4.67894 177.71 5.35479 177.138 6.49853 177.138C7.64227 177.138 8.94197 177.242 11.3334 177.242C13.4649 177.242 16.7922 176.982 19.6515 176.982C29.9972 176.982 35.6119 181.507 35.6119 188.632C35.6119 194.041 31.6608 198.462 25.6302 200.074L30.3091 207.615C32.6486 211.411 35.352 211.047 35.352 212.764C35.352 213.7 34.6761 214.272 33.7404 214.272C32.6486 214.272 30.2571 214.116 27.9177 214.116C25.7342 214.116 23.6026 214.272 22.3029 214.272C21.3152 214.272 20.6913 213.908 20.6913 213.128C20.6913 211.099 23.6546 211.827 23.6546 209.799C23.6546 209.123 23.2907 208.395 22.8748 207.719L19.4956 201.998C18.8717 201.01 18.2479 200.698 17.3641 200.75C16.6882 200.75 14.4527 200.802 12.9971 200.75C12.1133 200.698 11.6973 201.01 11.5934 201.842L10.7616 207.979C10.7096 208.291 10.6576 208.811 10.6576 209.227C10.6576 211.827 13.5689 211.099 13.5689 212.764C13.5689 213.648 12.8931 214.272 11.8533 214.272C10.6576 214.272 8.99396 214.116 6.6025 214.116C4.21105 214.116 2.59941 214.272 1.35169 214.272C0.415906 214.272 0 213.752 0 213.128ZM16.6882 197.629C23.9146 197.629 28.0736 194.665 28.0736 188.112C28.0736 183.119 24.2785 180.467 18.9757 180.467C15.7524 180.467 14.5567 181.039 14.2968 183.015L12.4772 195.809C12.2692 197.213 13.101 197.629 16.6882 197.629Z" fill="white"/>
<path d="M38.6792 203.246C38.6792 194.613 45.5416 187.644 54.8475 187.644C62.2819 187.644 67.2727 192.221 67.2727 199.346C67.2727 207.979 60.3583 215 51.1044 215C43.6701 215 38.6792 210.371 38.6792 203.246ZM52.768 211.619C57.239 211.619 60.4623 207.199 60.4623 201.166C60.4623 195.497 57.5509 190.972 53.1839 190.972C48.8169 190.972 45.4897 195.497 45.4897 201.478C45.4897 207.095 48.297 211.619 52.768 211.619Z" fill="white"/>
<path d="M72.8875 209.747C72.8875 207.823 73.4073 206.783 74.1352 201.426L75.4869 191.701H72.5235C71.6917 191.701 71.0679 191.285 71.0679 190.452C71.0679 189.464 72.0037 188.944 72.9914 188.476C76.2667 187.072 77.9823 184.888 80.0098 180.675C80.6857 179.375 81.1536 178.595 82.1934 178.595C82.9212 178.595 83.4931 179.167 83.3371 180.259L82.1414 188.424H90.0436C90.7194 188.424 90.9794 188.736 90.9794 189.412C90.9794 189.828 90.8754 190.452 90.7194 190.816C90.5115 191.389 90.1476 191.701 89.3677 191.701H81.6735L79.8539 204.598C79.5939 206.471 79.542 207.303 79.542 207.979C79.542 209.903 80.8936 210.683 82.1934 210.683C83.649 210.683 84.8448 209.851 85.9885 208.915C86.5604 208.499 86.9763 208.083 87.5481 208.083C88.276 208.083 88.7439 208.655 88.7439 209.383C88.7439 210.371 88.016 211.151 87.0283 212.036C84.9487 213.856 82.3493 214.792 79.6979 214.792C74.915 214.792 72.8875 211.88 72.8875 209.747Z" fill="white"/>
<path d="M94.5665 209.747C94.5665 207.823 95.0864 206.783 95.8143 201.426L97.1659 191.701H94.2026C93.3708 191.701 92.7469 191.285 92.7469 190.452C92.7469 189.464 93.6827 188.944 94.6705 188.476C97.9458 187.072 99.6614 184.888 101.689 180.675C102.365 179.375 102.833 178.595 103.872 178.595C104.6 178.595 105.172 179.167 105.016 180.259L103.82 188.424H111.723C112.398 188.424 112.658 188.736 112.658 189.412C112.658 189.828 112.554 190.452 112.398 190.816C112.191 191.389 111.827 191.701 111.047 191.701H103.353L101.533 204.598C101.273 206.471 101.221 207.303 101.221 207.979C101.221 209.903 102.573 210.683 103.872 210.683C105.328 210.683 106.524 209.851 107.668 208.915C108.239 208.499 108.655 208.083 109.227 208.083C109.955 208.083 110.423 208.655 110.423 209.383C110.423 210.371 109.695 211.151 108.707 212.036C106.628 213.856 104.028 214.792 101.377 214.792C96.5941 214.792 94.5665 211.88 94.5665 209.747Z" fill="white"/>
<path d="M113.646 203.246C113.646 194.769 120.769 187.748 128.775 187.748C134.961 187.748 138.185 192.169 138.185 196.017C138.185 198.149 136.729 199.554 135.013 200.074L120.665 204.338C121.756 207.979 124.46 210.579 128.307 210.579C130.854 210.579 133.35 209.487 135.481 207.615C136.313 206.939 136.625 206.783 137.041 206.783C137.769 206.783 138.185 207.459 138.185 208.031C138.185 208.551 137.925 209.175 137.405 209.851C135.377 212.4 130.542 214.896 125.396 214.896C118.637 214.896 113.646 210.475 113.646 203.246ZM120.197 201.27L129.815 198.305C131.114 197.941 131.894 197.005 131.894 195.757C131.894 193.625 130.49 191.232 127.527 191.232C123.68 191.232 120.197 195.237 120.197 200.75V201.27Z" fill="white"/>
<path d="M143.643 212.92C143.643 211.671 146.139 198.41 146.139 195.653C146.139 193.469 142.864 194.405 142.864 192.533C142.864 191.492 143.799 191.128 147.491 189.516C150.402 188.268 151.182 188.008 151.858 188.008C152.637 188.008 153.157 188.684 153.157 189.568C153.157 189.932 153.105 190.296 153.053 190.972C152.845 192.221 152.689 193.469 152.481 194.717C154.769 190.712 158.616 187.852 161.579 187.852C164.179 187.852 165.946 189.62 165.946 192.169C165.946 194.353 164.439 196.381 162.463 196.381C159.448 196.381 159.604 193.417 157.732 193.417C156.225 193.417 152.222 196.849 151.234 203.454C150.87 206.367 150.506 209.227 150.194 211.984C149.986 213.908 149.05 214.428 145.723 214.428C144.423 214.428 143.643 214.012 143.643 212.92Z" fill="white"/>
<path d="M166.882 203.506C166.882 194.613 173.745 187.696 181.439 187.696C184.818 187.696 187.366 188.996 189.029 190.868L189.965 184.055C190.017 183.535 190.121 182.963 190.121 182.495C190.121 180.311 186.482 181.143 186.482 179.271C186.482 178.231 187.366 177.867 191.317 176.254C194.28 175.058 195.112 174.85 195.84 174.85C196.619 174.85 197.139 175.474 197.139 176.254C197.139 176.722 197.087 177.086 196.983 177.763L193.032 206.107C192.928 206.835 192.876 207.511 192.876 207.979C192.876 208.967 193.396 209.539 194.176 209.539C195.008 209.539 195.528 208.967 196.1 208.967C196.723 208.967 197.243 209.435 197.243 210.319C197.243 212.556 194.176 214.636 191.109 214.636C188.613 214.636 186.586 213.232 186.586 210.267V209.903C184.402 212.712 181.023 214.896 176.76 214.896C171.197 214.896 166.882 210.631 166.882 203.506ZM179.827 210.423C183.206 210.423 186.69 207.719 187.366 203.038C187.574 201.218 187.833 199.658 187.833 198.358C187.833 194.665 186.066 190.973 182.011 190.973C177.488 190.973 173.589 196.173 173.589 202.258C173.589 207.303 176.396 210.423 179.827 210.423Z" fill="white"/>
<path d="M200.779 203.558C200.779 194.613 207.537 187.696 215.231 187.696C219.338 187.696 221.314 189.672 222.77 189.672C224.225 189.672 226.097 187.956 227.293 187.956C228.124 187.956 228.592 188.632 228.436 189.62L226.149 206.055C226.045 206.783 225.993 207.615 225.993 207.875C225.993 208.915 226.461 209.487 227.241 209.487C228.072 209.487 228.54 208.915 229.164 208.915C229.788 208.915 230.256 209.435 230.256 210.267C230.256 212.504 227.189 214.584 224.121 214.584C221.626 214.584 219.702 213.128 219.702 210.371V209.903C217.623 212.712 214.347 214.896 210.5 214.896C205.042 214.896 200.779 210.631 200.779 203.558ZM213.464 210.423C216.323 210.423 219.65 207.979 220.43 202.83C220.69 200.854 220.95 199.19 220.95 197.525C220.95 193.365 218.766 190.972 215.751 190.972C211.332 190.972 207.485 196.173 207.485 202.258C207.485 207.251 210.188 210.423 213.464 210.423Z" fill="white"/>
<path d="M268.935 209.591C268.935 208.135 269.455 201.946 269.455 198.982C269.455 194.457 268.467 192.741 266.232 192.741C263.84 192.741 261.033 194.769 259.993 199.866C259.473 203.402 259.161 206.419 258.589 211.984C258.329 213.908 257.446 214.428 254.118 214.428C252.819 214.428 252.039 214.012 252.039 212.92C252.039 210.735 254.066 201.062 254.066 197.473C254.066 194.873 253.131 192.741 250.427 192.741C247.724 192.741 244.397 195.081 243.565 200.022C242.941 204.598 242.473 207.875 242.057 211.984C241.797 213.908 240.913 214.428 237.586 214.428C236.286 214.428 235.507 214.012 235.507 212.92C235.507 211.723 238.002 198.41 238.002 195.653C238.002 193.469 234.727 194.405 234.727 192.533C234.727 191.44 235.663 191.128 239.354 189.516C242.421 188.216 242.993 188.008 243.721 188.008C244.501 188.008 245.02 188.684 245.02 189.568C245.02 189.672 245.02 190.14 244.865 191.024C244.761 191.701 244.657 192.325 244.605 192.949C246.788 190.036 249.855 187.852 253.599 187.852C257.55 187.852 259.525 190.348 260.149 193.469C262.333 190.088 265.66 187.852 269.143 187.852C272.418 187.852 275.694 189.724 275.694 195.861C275.694 198.357 275.174 205.014 275.174 207.095C275.174 209.175 275.694 209.695 276.577 209.695C277.617 209.695 278.137 209.019 278.813 209.019C279.437 209.019 279.957 209.487 279.957 210.267C279.957 212.192 276.733 214.532 273.666 214.532C270.807 214.532 268.935 212.764 268.935 209.591Z" fill="white"/>
</g>
<defs>
<clipPath id="clip0_20_415">
<rect width="353" height="215" fill="white"/>
</clipPath>
</defs>
</svg>
