<svg xmlns="http://www.w3.org/2000/svg" fill="none" viewBox="0 0 348 215">
  <g fill="#fff" clip-path="url(#a)">
    <path d="M13.1947 37.2508H3.49023V.59534h9.61937V37.2508h.0851Zm15.9191 0h-8.7681V9.78043h8.002v3.40187c1.0215-1.1906 2.2133-2.2112 3.405-2.8916 1.1918-.68037 2.7241-1.02056 4.5118-1.02056s3.2348.34019 4.5969 1.10566c1.362.6803 2.3835 1.786 3.1497 3.1467 1.1918-1.3607 2.4687-2.3813 3.8307-3.1467 1.362-.76547 2.9794-1.10566 5.0225-1.10566 2.043 0 4.9374.85046 6.725 2.63646 1.7026 1.786 2.639 4.3374 2.639 7.6543v17.6899h-8.7681V22.2824c0-1.6159-.3405-2.8916-.9364-3.7421-.5959-.9355-1.6174-1.3607-2.8092-1.3607-1.1918 0-1.362.1701-1.9579.5102-.5959.3402-1.1067.9356-1.4472 1.701-.3405.7654-.5959 1.786-.5959 2.9767v14.8833h-8.7681V22.2824c0-1.6159-.3405-2.8916-.9364-3.7421-.5959-.9355-1.6174-1.3607-2.8092-1.3607-1.1918 0-1.4472.1701-2.043.5102-.5959.3402-1.1067.9356-1.4472 1.701-.3405.7654-.5108 1.786-.5108 2.9767v14.8833h-.0851ZM96.875 23.5581c0 2.6365-.5107 5.0178-1.5323 7.2291-1.0215 2.2112-2.4686 3.8271-4.2563 5.1028-1.7877 1.2757-4.001 1.871-6.4697 1.871-2.4687 0-2.7241-.2551-4.001-.7654-1.1917-.5103-2.3835-1.2757-3.4902-2.2963v12.417h-8.7681V9.78043h8.002v3.14677c1.1066-1.1907 2.3835-2.1262 3.7456-2.7215 1.362-.59537 2.8092-.93556 4.4266-.93556 2.4687 0 4.5969.68038 6.4697 1.87106 1.7876 1.2757 3.2348 2.9766 4.2563 5.1879 1.0215 2.1262 1.5323 4.5925 1.5323 7.144l.0851.085Zm-9.1086 0c0-2.1262-.5107-3.7421-1.6174-4.7626-1.1067-1.0206-2.2984-1.6159-3.6605-1.6159-1.362 0-1.7025.2551-2.5538.6803-.8513.5103-1.4471 1.1907-1.9579 2.1262-.5108.9355-.7662 2.1262-.7662 3.572 0 1.4458.2554 2.6365.7662 3.572.5108.9355 1.1918 1.6159 1.9579 2.0411.7662.4253 1.6174.6804 2.5538.6804 1.3621 0 2.5538-.5103 3.6605-1.5308 1.1067-1.0206 1.6174-2.6365 1.6174-4.8477v.085Zm29.9646 13.6927v-2.6364c-.936 1.1056-2.043 1.871-3.32 2.3813-1.277.5103-2.809.7654-4.512.7654-2.894 0-5.192-.7654-6.895-2.3813-1.787-1.6159-2.639-3.657-2.639-6.2935s1.022-4.7627 3.15-6.1234c2.128-1.4458 5.108-2.1262 9.023-2.1262h2.129c.681 0 1.277.085 1.872.2551v-1.3607c0-1.1907-.34-2.1262-1.021-2.7216-.681-.6803-1.618-.9355-2.809-.9355-1.192 0-2.128.3402-2.81.9355-.681.6804-1.106 1.5309-1.276 2.7216h-7.832c.17-2.1262.766-3.9973 1.873-5.6132 1.021-1.6159 2.468-2.8065 4.256-3.657 1.788-.85048 3.746-1.27572 5.959-1.27572 3.746 0 6.725.93552 8.853 2.89162 2.128 1.9561 3.15 4.6776 3.15 8.0795v16.9244h-7.066l-.085.1701Zm-9.194-8.3346c0 .8505.256 1.6159.852 2.1262s1.447.7654 2.468.7654c1.022 0 2.639-.3402 3.405-.9355.852-.6804 1.192-1.5309 1.192-2.6365v-1.7009c-.681-.1701-1.277-.2552-1.787-.2552h-1.703c-1.447 0-2.554.2552-3.405.6804-.766.5103-1.192 1.1907-1.192 2.1262l.17-.1701Zm34.561 8.8448c-2.724 0-5.107-.5953-7.235-1.786-2.043-1.1906-3.746-2.8916-4.853-5.0178-1.191-2.1261-1.787-4.5925-1.787-7.3991 0-2.8065.596-5.1879 1.787-7.3141 1.192-2.1262 2.895-3.8271 4.938-5.1028 2.128-1.27573 4.426-1.87106 7.065-1.87106 2.639 0 4.767.51029 6.81 1.61586 2.043 1.1057 3.661 2.5515 4.938 4.4225 1.277 1.8711 2.043 4.1673 2.213 6.7188h-9.279c0-1.5309-.511-2.7216-1.362-3.572-.851-.8505-1.873-1.3608-3.235-1.3608-1.362 0-1.872.2552-2.639.7654-.681.5103-1.276 1.2757-1.702 2.2113-.426.9355-.596 2.1262-.596 3.4019s.17 2.5514.596 3.4869c.34.9355.936 1.701 1.617 2.2112.766.5103 1.618.7655 2.639.7655 1.022 0 2.469-.4253 3.235-1.2757.766-.8505 1.277-2.0412 1.362-3.6571h9.279c-.255 2.6365-.936 4.8477-2.213 6.8038-1.192 1.8711-2.81 3.4019-4.853 4.4225-1.957 1.0206-4.341 1.5308-6.895 1.5308h.17Zm37.116-9.1v7.5692c-.936.5103-1.958.9355-2.894 1.1907-1.022.2551-2.128.3402-3.32.3402-2.043 0-3.831-.4253-5.278-1.1907-1.447-.7654-2.554-1.9561-3.405-3.4019-.766-1.5309-1.192-3.3169-1.192-5.358V17.4347h-5.107V9.86549h5.107V1.70093h8.768v8.07951h7.491v7.56926h-7.491v8.3346c0 1.3608.256 2.2963.852 2.9767.595.5953 1.447.9355 2.639.9355 1.191 0 1.362 0 2.043-.2551.681-.1701 1.191-.4253 1.702-.6804h.085Zm16.77 8.5898h-8.768v-19.816h-5.108V9.86554h5.108v-.93552c0-2.80657.766-5.0178 2.298-6.54866C192.047.85051 194.345.08508 197.41.08508c3.064 0 1.873.08505 2.724.25515.851.17009 1.532.42523 2.213.68038v6.88884c-.34-.1701-.766-.25514-1.277-.34019-.511 0-1.021-.1701-1.447-.1701-.766 0-1.362.1701-1.873.42524-.51.25514-.766.68038-.766 1.36076v.76543h6.725v7.56921h-6.725v19.8161-.0851Zm22.73.5103c-2.043 0-3.916-.3402-5.704-1.1056-1.788-.7655-3.235-1.786-4.512-3.0617-1.277-1.2758-2.298-2.8066-3.064-4.5076-.766-1.7009-1.107-3.572-1.107-5.528 0-1.9561.341-3.8272 1.107-5.5281.766-1.701 1.702-3.2318 3.064-4.5075 1.277-1.2758 2.81-2.2963 4.512-3.0618 1.703-.76539 3.661-1.10558 5.704-1.10558 2.043 0 3.915.34019 5.703 1.10558 1.703.7655 3.235 1.786 4.512 3.0618 1.277 1.2757 2.298 2.8065 3.065 4.5075.766 1.7009 1.106 3.572 1.106 5.5281 0 1.956-.34 3.8271-1.106 5.528-.767 1.701-1.703 3.2318-3.065 4.5076-1.277 1.2757-2.809 2.2962-4.512 3.0617-1.702.7654-3.66 1.1056-5.703 1.1056Zm0-7.8244c.936 0 1.787-.2551 2.553-.6804.767-.5103 1.448-1.1906 1.958-2.1262.511-.9355.767-2.1261.767-3.5719 0-1.4459-.256-2.6365-.767-3.572-.51-.9356-1.106-1.701-1.958-2.1262-.766-.4253-1.702-.6804-2.553-.6804-.852 0-1.703.2551-2.554.6804-.851.4252-1.447 1.1906-1.958 2.1262-.511.9355-.766 2.1261-.766 3.572 0 1.4458.255 2.6364.766 3.5719.511.9356 1.192 1.701 1.958 2.1262.851.5103 1.702.6804 2.554.6804Zm27.836-7.144v14.4581h-8.768V9.78043h8.002v3.31687c1.107-1.1907 2.299-2.1262 3.576-2.8066 1.276-.68037 2.809-1.02056 4.596-1.02056 2.724 0 4.938.85046 6.64 2.63646 1.703 1.786 2.554 4.3374 2.554 7.6543v17.6899h-8.768V22.5375c0-1.7009-.34-3.0617-.936-3.9972-.596-.9355-1.618-1.3607-2.98-1.3607-1.362 0-1.362.1701-2.043.5953-.596.3402-1.107.9355-1.532 1.786-.341.8505-.596 1.9561-.596 3.3168l.255-.085Zm21.196.7655c0-2.6365.511-5.0178 1.532-7.2291 1.022-2.1262 2.469-3.8271 4.257-5.1028 1.873-1.27574 4.001-1.87107 6.469-1.87107 2.469 0 2.724.25514 4.001.76547 1.277.5102 2.384 1.2757 3.405 2.2962V.59534h8.769V37.2508h-8.002V34.104c-1.107 1.1907-2.384 2.0412-3.746 2.7216-1.362.5953-2.809.9355-4.427.9355-2.468 0-4.596-.6804-6.469-1.8711-1.873-1.2757-3.235-2.9766-4.257-5.1879-1.021-2.1261-1.532-4.5075-1.532-7.1439Zm9.024 0c0 2.1261.51 3.742 1.617 4.7626s2.298 1.6159 3.66 1.6159 1.788-.2551 2.554-.6804c.766-.5103 1.447-1.1906 1.958-2.1262.511-.9355.766-2.1261.766-3.5719 0-1.4459-.255-2.6365-.766-3.572-.511-.9356-1.192-1.6159-1.958-2.0412-.766-.4252-1.617-.6804-2.554-.6804-1.362 0-2.553.5103-3.66 1.5309-1.107 1.0206-1.617 2.6365-1.617 4.8477v-.085Zm50.225 4.3373c0 3.0617-1.106 5.4431-3.235 7.2291-2.213 1.786-5.363 2.6364-9.534 2.6364s-7.321-.9355-9.534-2.7215c-2.213-1.786-3.49-4.3374-3.746-7.4842h8.343c0 1.1907.511 2.0412 1.447 2.7216.936.6803 2.213 1.0205 3.66 1.0205 1.448 0 1.873-.1701 2.639-.4252.766-.2551 1.192-.7654 1.192-1.4458s-.255-1.1056-.681-1.3608c-.426-.3402-1.192-.5103-2.128-.6803l-5.448-.9356c-2.384-.4252-4.257-1.3607-5.704-2.7215-1.447-1.3607-2.128-3.1467-2.128-5.358 0-2.2112.511-3.3168 1.447-4.6776.937-1.3607 2.299-2.4664 4.086-3.2318 1.788-.76542 3.831-1.19066 6.215-1.19066 2.383 0 4.511.42524 6.384 1.19066 1.873.7654 3.32 1.9561 4.427 3.487 1.106 1.5308 1.702 3.2318 1.873 5.2729h-8.343c-.085-1.1056-.511-1.9561-1.362-2.5514-.766-.5954-1.788-.9356-2.979-.9356-1.192 0-1.873.1701-2.469.4253-.596.2551-.936.7654-.936 1.3607 0 .5954.255 1.0206.681 1.1907.425.2552 1.106.4252 1.957.5953l5.789 1.1057c2.639.5102 4.682 1.3607 6.044 2.6364 1.362 1.2757 2.043 2.8916 2.043 4.8477ZM17.7916 96.784H3.49023V60.1285H17.7916c3.9159 0 7.2358.7655 10.045 2.2963 2.8092 1.5309 5.0225 3.6571 6.5548 6.3786 1.5323 2.7215 2.2984 5.8683 2.2984 9.4403 0 3.5719-.7661 6.7187-2.3835 9.5253-1.5323 2.8065-3.7456 5.0178-6.6399 6.6337-2.8092 1.6159-6.1292 2.3813-9.9599 2.3813h.0851Zm-4.5969-28.3208v19.9862h4.0861c2.1282 0 3.9159-.3402 5.3631-1.1057 1.4471-.7654 2.4686-1.871 3.1497-3.4019.681-1.5308 1.0215-3.4019 1.0215-5.6981 0-2.2963-.3405-3.9973-1.1067-5.4431-.681-1.4458-1.7876-2.5514-3.2348-3.2318-1.4472-.7654-3.1497-1.1056-5.2779-1.1056h-4.0861.0851Zm44.8621 16.4993V69.3137h8.7681v27.4704H58.823v-2.9767c-.7662 1.0206-1.7877 1.871-3.2349 2.4664-1.362.6803-2.8943.9355-4.4266.9355-1.5323 0-3.4051-.4252-4.9373-1.1907-1.4472-.7654-2.639-1.9561-3.4903-3.4869-.8512-1.6159-1.2769-3.572-1.2769-5.9533V69.3137h8.7681v15.6488c0 1.5308.3405 2.6364 1.0216 3.4019.681.7654 1.7025 1.1056 2.8943 1.1056s1.1918-.1701 1.7877-.5103c.5958-.3402 1.1066-.8505 1.5322-1.4458.4257-.6804.5959-1.5309.5959-2.5514Zm31.4971 0V69.3137h8.7681v27.4704h-8.0019v-2.9767c-.7662 1.0206-1.7877 1.871-3.2349 2.4664-1.362.6803-2.8943.9355-4.4266.9355-1.5323 0-3.4051-.4252-4.9374-1.1907-1.4471-.7654-2.6389-1.9561-3.4902-3.4869-.8513-1.6159-1.2769-3.572-1.2769-5.9533V69.3137h8.7681v15.6488c0 1.5308.3405 2.6364 1.0215 3.4019.681.7654 1.7026 1.1056 2.8944 1.1056 1.1917 0 1.1917-.1701 1.7876-.5103.5959-.3402 1.1067-.8505 1.5323-1.4458.4257-.6804.5959-1.5309.5959-2.5514Zm24.0061-.8505v12.6721h-8.768V69.3137h8.002v4.8477c1.021-1.6159 2.554-2.8065 4.597-3.742 1.958-.8505 4.086-1.3608 6.299-1.3608v9.1001c-2.043-.1701-3.83-.2552-5.363 0-1.532.1701-2.724.6804-3.49 1.6159-.851.9355-1.277 2.3813-1.277 4.4224v-.085Zm37.711 12.6721H127.18V89.555l12.854-12.587h-13.109v-7.6543h24.091v7.3141l-12.94 12.4169h13.28v7.6543l-.085.0851Zm21.622-.0001v-2.6364c-.936 1.1056-2.043 1.871-3.32 2.3813-1.277.5103-2.809.7654-4.511.7654-2.895 0-5.193-.7654-6.896-2.3813-1.787-1.6159-2.639-3.657-2.639-6.2935s1.022-4.7627 3.15-6.1234c2.128-1.4458 5.108-2.1262 9.024-2.1262h2.128c.681 0 1.277.085 1.873.2551v-1.3607c0-1.1907-.341-2.1262-1.022-2.7216-.681-.6803-1.617-.9355-2.809-.9355-1.192 0-2.128.3402-2.809.9355-.681.6804-1.107 1.5309-1.277 2.7216h-7.832c.17-2.1262.766-3.9973 1.873-5.6132 1.021-1.6159 2.468-2.8065 4.256-3.657 1.788-.8505 3.746-1.2757 5.959-1.2757 3.746 0 6.725.9355 8.853 2.8916s3.15 4.6776 3.15 8.0795v16.9244h-7.066l-.085.1701Zm-9.193-8.3346c0 .8505.255 1.6159.851 2.1262s1.447.7654 2.469.7654c1.021 0 2.638-.3402 3.405-.9355.851-.6804 1.191-1.5309 1.191-2.6365v-1.7009c-.681-.1701-1.277-.2552-1.787-.2552h-1.703c-1.447 0-2.554.2552-3.405.6804-.766.5103-1.192 1.1907-1.192 2.1262l.171-.1701Zm31.241 8.3347h-8.768V69.3138h8.002v3.4018c1.021-1.1906 2.213-2.2112 3.405-2.8916 1.192-.6803 2.724-1.0205 4.512-1.0205 1.787 0 3.234.3402 4.597 1.1056 1.362.6804 2.383 1.786 3.149 3.1467 1.192-1.3607 2.469-2.3813 3.831-3.1467 1.362-.7654 2.979-1.1056 5.022-1.1056s4.938.8504 6.725 2.6364c1.703 1.786 2.639 4.3375 2.639 7.6543v17.6899h-8.768V81.8157c0-1.6159-.34-2.8916-.936-3.7421-.596-.9355-1.617-1.3607-2.809-1.3607-1.192 0-1.362.1701-1.958.5103-.596.3402-1.107.9355-1.447 1.7009-.341.7654-.596 1.786-.596 2.9767v14.8833h-8.768V81.8157c0-1.6159-.341-2.8916-.937-3.7421-.596-.8504-1.617-1.3607-2.809-1.3607-1.192 0-1.447.1701-2.043.5103-.596.3402-1.107.9355-1.447 1.7009-.341.7654-.511 1.786-.511 2.9767v14.8833h-.085Zm51.673.4252c-2.81 0-5.278-.5954-7.407-1.786-2.128-1.1907-3.745-2.8916-4.937-5.0178-1.192-2.1262-1.788-4.5926-1.788-7.4842 0-2.8916.596-5.1879 1.788-7.3141 1.192-2.1262 2.894-3.8271 5.023-5.0178 2.128-1.1906 4.511-1.871 7.235-1.871s4.342.4252 6.215 1.2757c1.872.8505 3.405 2.0411 4.597 3.572 1.276 1.5308 2.128 3.2318 2.638 5.2729.511 1.9561.596 4.0823.171 6.3786H237.76v-5.443h13.11c0-1.3608-.426-2.4664-1.277-3.3169-.851-.8505-1.873-1.1907-3.15-1.1907s-2.043.2552-2.809.8505-1.277 1.4458-1.702 2.5514c-.341 1.1907-.596 2.6365-.596 4.4225 0 1.786.17 2.9767.596 4.0823.34 1.1056.936 1.9561 1.702 2.4664.766.5102 1.703.8504 2.809.8504 1.107 0 2.214-.2551 3.065-.7654s1.447-1.2757 1.788-2.2112h8.768c-.852 3.1467-2.469 5.5281-4.767 7.229-2.299 1.701-5.193 2.5514-8.598 2.5514l-.085-.085ZM36.6047 119.662l-13.1096 36.655H12.9393L0 119.662h10.4706l8.0871 25.344 8.3425-25.344h9.7045Zm12.6841 37.165c-2.043 0-3.9158-.34-5.7035-1.105-1.7025-.766-3.2348-1.786-4.5117-3.062-1.2769-1.276-2.2985-2.806-3.0646-4.507-.7661-1.701-1.1067-3.572-1.1067-5.528 0-1.957.3406-3.828 1.1067-5.529.7661-1.7 1.7025-3.231 3.0646-4.507 1.2769-1.276 2.8092-2.296 4.5117-3.062 1.7026-.765 3.6605-1.105 5.7035-1.105 2.0431 0 3.9159.34 5.7036 1.105 1.7876.766 3.2348 1.786 4.5117 3.062 1.2769 1.276 2.2984 2.807 3.0646 4.507.7661 1.701 1.1066 3.572 1.1066 5.529 0 1.956-.3405 3.827-1.1066 5.528-.7662 1.701-1.7877 3.231-3.0646 4.507-1.2769 1.276-2.8092 2.296-4.5117 3.062-1.7026.765-3.6605 1.105-5.7036 1.105Zm0-7.824c.9364 0 1.7877-.255 2.5539-.68.7661-.511 1.4471-1.191 1.9579-2.126.5107-.936.7661-2.127.7661-3.572 0-1.446-.2554-2.637-.7661-3.572-.5108-.936-1.1067-1.701-1.9579-2.127-.7662-.425-1.7026-.68-2.5539-.68-.8512 0-1.7025.255-2.5538.68-.8512.426-1.4471 1.191-1.9579 2.127-.5108.935-.7661 2.126-.7661 3.572 0 1.445.2553 2.636.7661 3.572.5108.935 1.1918 1.7 1.9579 2.126.8513.51 1.7026.68 2.5538.68Zm31.4966 7.739c-2.8092 0-5.2779-.595-7.4061-1.786-2.1281-1.19-3.7456-2.891-4.9373-5.017-1.1918-2.126-1.7877-4.593-1.7877-7.484 0-2.892.5959-5.188 1.7877-7.315 1.1917-2.126 2.8943-3.827 5.0225-5.017 2.1282-1.191 4.5117-1.871 7.2358-1.871s4.3415.425 6.2143 1.275c1.8728.851 3.4051 2.041 4.5968 3.572 1.2769 1.531 2.1282 3.232 2.639 5.273.5107 1.956.5959 4.083.1702 6.379H71.9322v-5.443h13.1096c0-1.361-.4257-2.467-1.2769-3.317-.8513-.851-1.8728-1.191-3.1497-1.191-1.277 0-2.0431.255-2.8092.851-.7662.595-1.2769 1.446-1.7026 2.551-.3405 1.191-.5959 2.637-.5959 4.423s.1703 2.976.5959 4.082c.3405 1.106.9364 1.956 1.7026 2.466.7661.511 1.7025.851 2.8092.851 1.1066 0 2.2133-.255 3.0645-.766.8513-.51 1.4472-1.275 1.7877-2.211h8.7681c-.8513 3.147-2.4687 5.528-4.7671 7.229-2.2985 1.701-5.1928 2.552-8.5979 2.552l-.0851-.086Zm16.3445-14.117c0-2.637.5107-5.018 1.5323-7.229 1.0215-2.127 2.4688-3.828 4.2568-5.103 1.872-1.276 4.001-1.871 6.469-1.871 2.469 0 2.724.255 4.001.765 1.277.51 2.384 1.276 3.405 2.296v-11.736h8.768v36.655h-8.002v-3.146c-1.106 1.19-2.383 2.041-3.745 2.721-1.362.595-2.809.936-4.427.936-2.468 0-4.597-.681-6.469-1.871-1.873-1.276-3.2353-2.977-4.2568-5.188-1.0216-2.127-1.5323-4.508-1.5323-7.144v-.085Zm9.0231 0c0 2.126.511 3.742 1.618 4.762 1.106 1.021 2.298 1.616 3.66 1.616s1.788-.255 2.554-.68c.766-.511 1.447-1.191 1.958-2.126.511-.936.766-2.127.766-3.572 0-1.446-.255-2.637-.766-3.572-.511-.936-1.192-1.616-1.958-2.042-.766-.425-1.617-.68-2.554-.68-1.362 0-2.554.51-3.66 1.531-1.107 1.021-1.618 2.636-1.618 4.848v-.085Zm50.226 4.337c0 3.062-1.107 5.443-3.235 7.229-2.213 1.786-5.363 2.636-9.534 2.636s-7.321-.935-9.534-2.721c-2.214-1.786-3.491-4.337-3.746-7.484h8.343c0 1.19.51 2.041 1.447 2.721.936.681 2.213 1.021 3.66 1.021s1.873-.17 2.639-.425c.766-.255 1.192-.766 1.192-1.446 0-.681-.255-1.106-.681-1.361-.426-.34-1.192-.51-2.128-.68l-5.448-.936c-2.384-.425-4.257-1.361-5.704-2.721-1.447-1.361-2.128-3.147-2.128-5.358 0-2.212.511-3.317 1.447-4.678.936-1.361 2.298-2.381 4.086-3.232 1.788-.765 3.831-1.105 6.214-1.105 2.384 0 4.512.425 6.385 1.19 1.873.766 3.32 1.956 4.427 3.487 1.106 1.531 1.702 3.232 1.872 5.273h-8.342c-.085-1.105-.511-1.956-1.362-2.551-.766-.596-1.788-.936-2.98-.936-1.191 0-1.872.17-2.468.425-.596.256-.937.766-.937 1.361 0 .596.256 1.021.681 1.191.426.255 1.107.425 1.958.595l5.789 1.106c2.639.51 4.682 1.361 6.044 2.636 1.362 1.276 2.043 2.892 2.043 4.848v-.085Zm17.45 9.78c-2.809 0-5.278-.595-7.406-1.786-2.128-1.19-3.745-2.891-4.937-5.017-1.192-2.126-1.788-4.593-1.788-7.484 0-2.892.596-5.188 1.788-7.315 1.192-2.126 2.894-3.827 5.022-5.017 2.129-1.191 4.512-1.871 7.236-1.871s4.342.425 6.215 1.275c1.872.851 3.405 2.041 4.596 3.572 1.277 1.531 2.129 3.232 2.639 5.273.511 1.956.596 4.083.171 6.379h-22.389v-5.443h13.11c0-1.361-.426-2.467-1.277-3.317-.851-.851-1.873-1.191-3.15-1.191s-2.043.255-2.809.851c-.766.595-1.277 1.446-1.703 2.551-.34 1.191-.596 2.637-.596 4.423s.171 2.976.596 4.082c.341 1.106.937 1.956 1.703 2.466.766.511 1.702.851 2.809.851 1.107 0 2.213-.255 3.065-.766.851-.51 1.447-1.275 1.787-2.211h8.768c-.851 3.147-2.468 5.528-4.767 7.229-2.298 1.701-5.192 2.552-8.598 2.552l-.085-.086Zm27.327-.425h-8.853v-36.655h8.853v36.655Zm15.237 0h-8.768v-36.655h8.768v20.326l8.513-11.141h10.045l-10.13 13.012 11.577 14.458h-11.152l-8.853-12.502v12.502Zm34.137.425c-2.81 0-5.278-.595-7.407-1.786-2.128-1.19-3.745-2.891-4.937-5.017-1.192-2.126-1.788-4.593-1.788-7.484 0-2.892.596-5.188 1.788-7.315 1.192-2.126 2.894-3.827 5.023-5.017 2.128-1.191 4.511-1.871 7.235-1.871s4.342.425 6.215 1.275c1.872.851 3.405 2.041 4.597 3.572 1.276 1.531 2.128 3.232 2.639 5.273.51 2.041.595 4.083.17 6.379h-22.389v-5.443h13.11c0-1.361-.426-2.467-1.277-3.317-.851-.851-1.873-1.191-3.15-1.191s-2.043.255-2.809.851c-.766.595-1.277 1.446-1.702 2.551-.341 1.191-.596 2.637-.596 4.423s.17 2.976.596 4.082c.34 1.106.936 1.956 1.702 2.466.766.511 1.703.851 2.809.851 1.107 0 2.214-.255 3.065-.766.851-.51 1.447-1.275 1.788-2.211h8.768c-.852 3.147-2.469 5.528-4.767 7.229-2.299 1.701-5.193 2.552-8.598 2.552l-.085-.086Zm36.689-9.015v7.57c-.936.51-1.958.935-2.894 1.19-.937.255-2.128.34-3.32.34-2.043 0-3.831-.425-5.278-1.19-1.447-.766-2.554-1.956-3.405-3.402-.766-1.531-1.192-3.317-1.192-5.358v-10.376h-5.108v-7.569h5.108v-8.08h8.768v8.08h7.491v7.569h-7.491v8.335c0 1.361.256 2.296.851 2.976.596.596 1.448.936 2.639.936 1.192 0 1.362 0 2.043-.255.681-.17 1.192-.425 1.703-.681l.085-.085Zm16.771 9.015c-2.81 0-5.278-.595-7.407-1.786-2.128-1.19-3.745-2.891-4.937-5.017-1.192-2.126-1.788-4.593-1.788-7.484 0-2.892.596-5.188 1.788-7.315 1.192-2.126 2.894-3.827 5.023-5.017 2.128-1.191 4.511-1.871 7.235-1.871s4.342.425 6.215 1.275c1.872.851 3.405 2.041 4.597 3.572 1.276 1.531 2.128 3.232 2.638 5.273.511 1.956.596 4.083.171 6.379h-22.389v-5.443h13.11c0-1.361-.426-2.467-1.277-3.317-.851-.851-1.873-1.191-3.15-1.191s-2.043.255-2.809.851c-.766.595-1.277 1.446-1.702 2.551-.341 1.191-.596 2.637-.596 4.423s.17 2.976.596 4.082c.34 1.106.936 1.956 1.702 2.466.766.511 1.703.851 2.809.851 1.107 0 2.214-.255 3.065-.766.851-.51 1.447-1.275 1.788-2.211h8.768c-.852 3.147-2.469 5.528-4.768 7.229-2.298 1.701-5.192 2.552-8.597 2.552l-.085-.086Zm27.325-14.883v14.458h-8.768v-27.47h8.002v3.317c1.106-1.191 2.298-2.126 3.575-2.807 1.277-.68 2.809-1.02 4.597-1.02 2.724 0 4.937.85 6.64 2.636 1.703 1.786 2.554 4.338 2.554 7.654v17.69h-8.768v-14.713c0-1.701-.341-3.062-.937-3.997-.596-.936-1.617-1.361-2.979-1.361s-1.362.17-2.043.595c-.596.341-1.107.936-1.533 1.786-.425.851-.595 1.957-.595 3.317l.255-.085ZM.51124 213.129c0-2.211 3.31996-.936 3.83072-4.508l3.49022-24.834v-1.02c0-2.552-2.8092-1.871-2.8092-3.487s.68102-1.446 1.78767-1.446c1.10666 0 2.38357.085 4.76715.085 2.3835 0 5.363-.255 8.1722-.255 10.1301 0 15.6634 4.423 15.6634 11.396 0 6.974-3.9159 9.611-9.7896 11.227l4.5968 7.399c2.2985 3.742 4.9374 3.402 4.9374 5.018 0 1.616-.681 1.445-1.6174 1.445-.9364 0-3.4051-.17-5.7035-.17-2.2985 0-4.2564.17-5.5333.17-1.2769 0-1.6174-.34-1.6174-1.105 0-1.956 2.8943-1.276 2.8943-3.232 0-1.956-.3405-1.361-.7661-2.041l-3.32-5.613c-.5959-.936-1.1918-1.276-2.1282-1.191h-4.2563c-.8513 0-1.2769.255-1.3621 1.106l-.8512 6.038c0 .34-.0852.851-.0852 1.191 0 2.551 2.8944 1.871 2.8944 3.487s-.6811 1.445-1.7026 1.445c-1.0215 0-2.80918-.17-5.19275-.17-2.38356 0-3.91585.17-5.19276.17-1.2769 0-1.36203-.51-1.36203-1.105h.25538Zm16.42956-15.224c7.0655 0 11.1517-2.891 11.1517-9.355 0-6.463-3.7456-7.484-8.9384-7.484s-4.3415.595-4.5969 2.466l-1.7876 12.587c-.1703 1.361.5958 1.786 4.1712 1.786Zm21.5367 5.529c0-8.505 6.7251-15.309 15.9188-15.309 9.1938 0 12.1732 4.508 12.1732 11.481 0 6.974-6.8102 15.394-15.9188 15.394s-12.1732-4.508-12.1732-11.566Zm13.8758 8.249c4.4266 0 7.5763-4.337 7.5763-10.291 0-5.953-2.8943-10.035-7.1507-10.035-4.2564 0-7.5763 4.422-7.5763 10.291 0 5.868 2.7241 9.95 7.1507 9.95v.085Zm19.7498-1.871c0-1.871.5108-2.892 1.1918-8.164l1.362-9.526h-2.8943c-.8513 0-1.4472-.425-1.4472-1.19 0-.766.9364-1.446 1.8728-1.957 3.2349-1.36 4.9374-3.487 6.8953-7.654.6811-1.276 1.1067-2.041 2.1282-2.041s1.2769.595 1.1067 1.616l-1.1918 7.994h7.7466c.681 0 .9364.341.9364.936s-.0852 1.02-.2554 1.361c-.1703.595-.5959.85-1.3621.85h-7.5763l-1.7877 12.672c-.2553 1.871-.3405 2.637-.3405 3.317 0 1.871 1.3621 2.637 2.639 2.637 1.2769 0 2.6389-.851 3.7456-1.701.5959-.426.9364-.851 1.5323-.851s1.1918.595 1.1918 1.276c0 .68-.6811 1.701-1.7026 2.636-2.043 1.786-4.5969 2.722-7.2358 2.722-4.682 0-6.7251-2.892-6.7251-4.933h.1703Zm21.2812 0c0-1.871.5108-2.892 1.1918-8.164l1.3621-9.526h-2.8944c-.8512 0-1.4471-.425-1.4471-1.19 0-.766.9364-1.446 1.8728-1.957 3.2348-1.36 4.9374-3.487 6.8955-7.654.681-1.276 1.106-2.041 2.128-2.041 1.021 0 1.277.595 1.107 1.616l-1.192 7.994h7.746c.681 0 .937.341.937.936s-.085 1.02-.256 1.361c-.17.595-.595.85-1.362.85h-7.576l-1.788 12.672c-.255 1.871-.3401 2.637-.3401 3.317 0 1.871 1.3621 2.637 2.6391 2.637s2.639-.851 3.745-1.701c.596-.426.937-.851 1.533-.851.596 0 1.192.595 1.192 1.276 0 .68-.682 1.701-1.703 2.636-2.043 1.786-4.597 2.722-7.2359 2.722-4.6819 0-6.725-2.892-6.725-4.933h.1702Zm18.8127-6.379c0-8.334 6.981-15.223 14.898-15.223s9.279 4.337 9.279 8.079c0 3.743-1.448 3.487-3.15 3.998l-14.131 4.167c1.106 3.572 3.745 6.123 7.491 6.123 3.746 0 4.937-1.105 7.065-2.891.852-.681 1.107-.851 1.533-.851.681 0 1.106.681 1.106 1.191s-.255 1.106-.766 1.786c-1.958 2.466-6.725 4.933-11.832 4.933-5.108 0-11.578-4.338-11.578-11.397l.085.085Zm6.385-1.956 9.449-2.891c1.277-.34 2.043-1.276 2.043-2.467 0-2.126-1.362-4.422-4.256-4.422-2.895 0-7.236 3.912-7.236 9.355v.51-.085Zm23.07 11.482c0-1.191 2.469-14.203 2.469-16.925 0-2.721-3.235-1.19-3.235-3.061s.936-1.361 4.511-2.977c2.895-1.191 3.661-1.446 4.257-1.446.596 0 1.277.681 1.277 1.531 0 .851 0 .68-.085 1.361-.171 1.191-.341 2.466-.596 3.657 2.213-3.912 6.044-6.719 8.938-6.719 2.894 0 4.256 1.701 4.256 4.253 0 2.551-1.447 4.167-3.405 4.167-2.979 0-2.809-2.892-4.682-2.892-1.872 0-5.448 3.402-6.384 9.866-.341 2.891-.681 5.698-1.022 8.334-.17 1.871-1.106 2.382-4.426 2.382-3.32 0-2.043-.426-2.043-1.446l.17-.085Zm22.814-9.27c0-8.76 6.725-15.479 14.301-15.479 7.577 0 5.789 1.276 7.491 3.147l.937-6.719c0-.51.17-1.106.17-1.531 0-2.126-3.575-1.361-3.575-3.147 0-1.786.851-1.36 4.767-2.976 2.894-1.191 3.745-1.361 4.426-1.361s1.277.595 1.277 1.361c0 .765 0 .85-.17 1.446l-3.916 27.81c-.085.681-.17 1.361-.17 1.871 0 .936.511 1.531 1.277 1.531.766 0 1.362-.595 1.873-.595.51 0 1.106.425 1.106 1.36 0 2.212-2.979 4.253-6.044 4.253-3.064 0-4.426-1.361-4.426-4.253v-.34c-2.128 2.722-5.448 4.933-9.62 4.933-4.171 0-9.704-4.167-9.704-11.141v-.17Zm12.684 6.804c3.32 0 6.725-2.637 7.406-7.23.17-1.786.425-3.316.425-4.592 0-3.657-1.702-7.229-5.703-7.229s-8.257 5.103-8.257 11.056c0 5.953 2.724 7.995 6.129 7.995Zm20.601-6.719c0-8.76 6.64-15.564 14.216-15.564 7.577 0 5.959 1.956 7.406 1.956s3.235-1.701 4.427-1.701c1.192 0 1.277.68 1.107 1.616l-2.214 16.159c-.085.68-.17 1.531-.17 1.786 0 1.021.426 1.616 1.192 1.616s1.277-.595 1.873-.595c.595 0 1.106.51 1.106 1.36 0 2.212-2.979 4.253-6.044 4.253-3.064 0-4.341-1.446-4.341-4.168v-.425c-2.043 2.722-5.278 4.933-9.024 4.933-5.363 0-9.534-4.167-9.534-11.141v-.085Zm12.514 6.718c2.809 0 6.044-2.381 6.81-7.484.255-1.956.511-3.572.511-5.188 0-4.082-2.129-6.463-5.108-6.463-4.342 0-8.087 5.103-8.087 11.056 0 5.953 2.639 7.994 5.874 7.994v.085Zm54.48-.85c0-1.446.511-7.484.511-10.376 0-4.422-.936-6.123-3.15-6.123-2.213 0-5.107 1.956-6.129 6.974-.51 3.487-.851 6.463-1.362 11.906-.255 1.871-1.106 2.382-4.426 2.382-3.32 0-2.043-.426-2.043-1.446 0-2.126 1.957-11.652 1.957-15.139s-.936-4.677-3.575-4.677c-2.639 0-5.959 2.296-6.725 7.144-.596 4.507-1.107 7.739-1.447 11.736-.255 1.871-1.107 2.382-4.427 2.382-3.32 0-2.043-.426-2.043-1.446 0-1.021 2.469-14.203 2.469-16.925 0-2.721-3.235-1.19-3.235-3.061s.937-1.361 4.512-2.977c2.979-1.276 3.575-1.446 4.256-1.446s1.277.681 1.277 1.531c0 .851 0 .595-.17 1.446-.085.68-.17 1.276-.256 1.871 2.129-2.892 5.193-5.018 8.854-5.018 3.66 0 5.788 2.467 6.469 5.528 2.129-3.317 5.449-5.528 8.854-5.528 3.405 0 6.469 1.871 6.469 7.824 0 5.954-.51 9.016-.51 11.057 0 2.041.51 2.551 1.362 2.551.851 0 1.532-.68 2.213-.68s1.107.425 1.107 1.19c0 1.871-3.15 4.168-6.215 4.168-3.064 0-4.682-1.701-4.682-4.848h.085Z"/>
  </g>
  <defs>
    <clipPath id="a">
      <path fill="#fff" d="M0 0h348v215H0z"/>
    </clipPath>
  </defs>
</svg>