<svg width="80" height="83" viewBox="0 0 80 83" fill="none" xmlns="http://www.w3.org/2000/svg">
<path d="M23.2588 50.0854C23.2588 50.0854 23.1996 50.1642 23.1733 50.1971C23.2456 50.2497 23.3179 50.2956 23.3902 50.3482C23.4164 50.3154 23.4427 50.2759 23.4756 50.2431C23.4033 50.1905 23.3376 50.138 23.2653 50.0854M35.3481 14.632C35.3481 14.632 35.2824 14.6386 35.243 14.632L35.2693 14.862C35.2693 14.862 35.3087 14.862 35.3284 14.862C35.335 14.7832 35.3415 14.7043 35.3481 14.6255V14.632ZM35.5912 9.54006C35.7555 9.40209 35.8672 9.31667 36.0314 9.1787C35.7555 9.18527 35.5584 9.15899 35.5912 9.54006ZM2.88425 24.6583C2.96309 24.3364 3.10764 24.0144 3.04193 23.6794C3.00251 23.6794 2.96309 23.6728 2.93024 23.6794C2.91053 24.0013 2.90396 24.3364 2.88425 24.6583ZM3.3376 21.2746C3.05507 21.8857 3.02222 22.5098 3.14706 23.1472C3.20619 22.523 3.27189 21.8922 3.3376 21.2746ZM53.8369 49.4941C53.8961 49.3167 53.8829 49.1261 53.699 49.0604C53.5347 48.9947 53.3967 49.1064 53.3113 49.2378C53.3902 49.7503 53.8698 49.6715 54.1917 49.9014C54.1786 49.632 53.9552 49.6518 53.8369 49.5006M58.2653 49.1787C58.2653 49.1787 58.2522 49.2115 58.239 49.2247C58.2785 49.2575 58.3245 49.2904 58.3639 49.3167C59.0406 49.6977 59.7239 50.0657 60.4072 50.4599C61.7673 51.2418 63.239 51.7608 64.7239 52.2536C66.4059 52.8121 68.1011 53.318 69.7174 54.0276C70.0065 54.1524 70.3153 54.2444 70.6438 54.2772C70.5255 54.1787 70.4007 54.0998 70.2693 54.0473C69.1326 53.5874 67.9959 53.1472 66.8658 52.6741C65.9854 52.2996 65.1116 51.9119 64.2443 51.5112C63.377 51.1104 62.536 50.6636 61.6687 50.2431C61.4913 50.1577 61.3139 50.092 61.13 50.0394C60.243 49.7635 59.356 49.5006 58.4624 49.2313C58.3967 49.205 58.331 49.1984 58.2653 49.1853M35.4335 9.19841C35.5255 9.14585 35.5781 9.11299 35.6175 9.08014C36.2351 8.53481 36.7936 7.93691 37.2338 7.24046C37.6214 6.63599 38.0157 6.03809 38.5676 5.55189C38.653 5.46648 38.7318 5.36792 38.8369 5.22995C37.063 5.69644 35.7423 6.78054 34.356 7.78579C34.7239 8.26542 35.0722 8.7122 35.4335 9.19841ZM71.9381 50.4139C71.9381 50.4139 71.9447 50.3613 71.9578 50.3351C71.6753 50.2168 71.3928 50.092 71.1037 49.9737C70.4598 49.7175 69.8159 49.4481 69.1655 49.2115C68.6398 49.021 68.1011 48.8633 67.5623 48.6991C67.2995 48.6136 67.0301 48.5348 66.7542 48.456C65.6701 48.1143 64.5531 47.8318 63.5084 47.4113C62.0498 46.8265 60.5781 46.314 59.034 46.0052C58.8369 45.9658 58.6333 45.9658 58.3967 45.9461C58.3967 46.1498 58.3967 46.3075 58.3967 46.4783C58.6135 46.5703 58.8107 46.6623 59.0209 46.728C59.8291 47.0039 60.6438 47.2799 61.4651 47.5295C62.0695 47.7135 62.6871 47.8712 63.3047 48.0289C64.0209 48.2063 64.7502 48.3574 65.4664 48.5282C65.9854 48.6531 66.4913 48.8042 67.0104 48.9356C67.3126 49.0144 67.6083 49.0801 67.9171 49.1787C68.8961 49.4809 69.8685 49.7897 70.8343 50.092C71.1957 50.2037 71.5702 50.3088 71.9315 50.4139M68.7252 60.5453C68.5741 60.4008 68.5084 60.3219 68.4164 60.2628C67.7725 59.8292 67.1287 59.3955 66.4782 58.975C65.7292 58.4888 64.9342 58.0617 64.2114 57.5427C63.5347 57.0565 62.9237 56.4914 62.2929 55.9461C61.6556 55.3876 61.0446 54.8029 60.4007 54.251C60.0787 53.975 59.6911 53.7779 59.3757 53.5019C58.7318 52.9566 58.1208 52.3719 57.4835 51.82C56.787 51.2089 55.9591 50.7818 55.1247 50.3811C54.9408 50.2956 54.7502 50.2497 54.5728 50.1774C54.5531 50.2102 54.5268 50.2496 54.5071 50.2825C54.5991 50.3548 54.6911 50.4336 54.7765 50.5059C54.8488 50.565 54.921 50.6242 54.9933 50.6964C55.1116 50.8344 55.2101 51.0118 55.3547 51.1038C55.6372 51.2746 55.854 51.5046 56.0511 51.7477C56.3994 52.1748 56.7344 52.615 57.1155 53.0092C57.4309 53.3377 57.7857 53.6071 58.1273 53.9027C58.1668 53.9422 58.2259 53.9816 58.2785 53.9947C58.5741 54.0407 58.7712 54.2444 58.9749 54.4284C59.2903 54.7109 59.6057 54.9934 59.9145 55.2825C60.7423 56.0709 61.6556 56.7674 62.72 57.2076C63.7055 57.615 64.6057 58.1734 65.5124 58.7056C66.084 59.0407 66.5899 59.4612 67.1287 59.8423C67.582 60.1642 68.0682 60.427 68.7252 60.5453ZM56.4585 41.9054C56.649 42.201 56.8067 42.4507 56.9644 42.6872C57.3652 42.6872 57.72 42.6741 58.0682 42.7069C58.8764 42.7792 59.6911 42.8515 60.5058 42.95C61.7016 43.1012 62.8842 43.2917 64.0735 43.456C65.013 43.5874 65.946 43.7713 66.8856 43.8633C68.8632 44.0604 70.8475 44.2181 72.8251 44.3824C73.4887 44.4415 74.1589 44.4809 74.8225 44.5335C74.6385 44.4152 74.4414 44.3561 74.2443 44.3101C72.3455 43.9093 70.4532 43.5085 68.5544 43.1077C68.1339 43.0157 67.7068 42.9566 67.2929 42.8515C66.4388 42.6347 65.5846 42.3719 64.7239 42.1682C63.5676 41.8922 62.4112 41.6557 61.2548 41.3995C60.9986 41.3469 60.716 41.3272 60.5452 41.5177C60.381 41.7017 60.197 41.6294 60.0327 41.682C59.8422 41.7477 59.6845 41.8922 59.5137 41.9842C59.4545 42.0105 59.3691 42.0105 59.2903 42.0105C58.6135 41.9974 57.9302 42.0499 57.2469 41.9317C57.017 41.8857 56.7804 41.9054 56.4651 41.8922M28.0354 53.5085C27.8908 53.4362 27.766 53.3508 27.6214 53.2917C27.2864 53.1537 26.9381 53.0092 26.5965 52.8909C25.7686 52.6084 25.0984 52.0893 24.4348 51.5637C23.6793 50.9658 22.8974 50.3811 22.3652 49.5663C22.2732 49.4349 22.1615 49.3167 22.1944 49.1064C22.2206 48.9553 22.1484 48.7451 21.9118 48.6991C21.8724 48.6991 21.8461 48.6465 21.8133 48.6136C21.4388 48.2194 21.038 47.8581 20.854 47.3127C20.6766 46.7805 20.4072 46.2878 20.1707 45.7687C19.9539 45.2825 19.7305 44.8029 19.5137 44.3167C19.3888 44.0276 19.2377 43.745 19.1457 43.4494C19.0012 42.9895 18.9026 42.5164 18.7712 42.0565C18.7252 41.8791 18.653 41.6754 18.5413 41.5571C18.3639 41.3732 18.2982 41.1629 18.2785 40.933C18.239 40.5059 18.0814 40.1248 17.904 39.7503C17.8383 39.6123 17.8251 39.4612 17.7988 39.3035C17.7857 39.251 17.7857 39.1853 17.766 39.1393C17.5492 38.7319 17.3192 38.3377 17.1221 37.9238C17.0235 37.7332 16.9841 37.5164 16.9053 37.3127C16.833 37.1222 16.7542 36.9382 16.6819 36.7477C16.649 36.6623 16.5833 36.5374 16.6162 36.4717C16.741 36.2286 16.6162 36.025 16.5242 35.8213C16.4782 35.7227 16.4256 35.611 16.3599 35.4533C16.4913 35.4796 16.5768 35.4928 16.6819 35.5125C16.7213 35.4402 16.7607 35.3548 16.8067 35.2694C16.8659 35.2759 16.9118 35.2694 16.9513 35.2891C17.3258 35.473 17.5689 35.7556 17.7528 36.1235C18.2982 37.247 18.8435 38.3705 19.4677 39.4612C19.8291 40.0985 20.0722 40.8016 20.3612 41.4783C20.7292 42.3259 21.0971 43.1734 21.4519 44.0276C21.8461 44.9803 22.2929 45.9067 22.8711 46.7543C23.6793 47.9435 24.6057 49.0341 25.8146 49.8817C27.1747 50.841 28.6924 51.3995 30.3153 51.7542C30.5124 51.8002 30.7029 51.8988 30.9132 51.9251C31.2482 51.9711 31.5899 51.9973 31.9184 51.9973C31.9907 51.9973 32.1221 51.9054 32.1484 51.8331C32.2469 51.6097 32.3521 51.3732 32.3849 51.1432C32.444 50.565 32.3586 50 32.1681 49.4415C32.0301 49.0341 31.9381 48.6071 31.7739 48.2063C31.5505 47.661 31.268 47.1419 31.0314 46.6031C30.9132 46.3206 30.8277 46.0315 30.7489 45.749C30.5255 45 30.1116 44.3364 29.7305 43.6596C29.4808 43.2063 29.1786 42.7726 28.9486 42.3062C28.6924 41.7937 28.3442 41.3206 28.2259 40.7424C28.1799 40.5453 28.1076 40.3548 28.0748 40.1577C27.9565 39.5598 28.0748 39.3692 28.6661 39.1064C28.745 39.067 28.8238 39.0144 28.8698 38.9422C29.0603 38.6202 29.3823 38.6991 29.6714 38.6991C29.7436 38.6991 29.8093 38.8173 29.9013 38.9093C30.0065 38.8108 30.1116 38.6925 30.2693 38.5414C30.5715 38.7648 30.9 38.9684 31.0314 39.3561C31.3271 40.2102 31.7739 40.9724 32.3192 41.6951C32.7266 42.2405 33.0748 42.8318 33.4887 43.3705C33.9946 44.0473 34.5991 44.632 35.2101 45.2168C35.8934 45.8804 36.7542 46.2746 37.6017 46.6885C38.0748 46.9251 38.5347 47.1879 39.0143 47.4113C39.9605 47.8515 40.9263 48.2588 41.879 48.6859C42.4243 48.929 42.9302 48.7319 43.423 48.5348C43.5019 48.502 43.5676 48.3574 43.5807 48.2523C43.699 47.5295 43.6333 46.8265 43.3047 46.1498C42.8908 45.2759 42.5294 44.3824 42.1418 43.5019C42.0827 43.364 41.9775 43.2391 41.8987 43.1077C41.8067 42.9566 41.6885 42.8252 41.6293 42.6741C41.4454 42.1879 41.1365 41.7937 40.7752 41.4257C40.4992 41.1498 40.2101 40.8673 39.9736 40.5716C39.7831 40.3351 39.5662 40.0788 39.494 39.8029C39.4086 39.4744 39.448 39.1064 39.4348 38.7713C39.5991 38.7056 39.7634 38.6531 39.9408 38.5874C39.8553 38.4691 39.7962 38.3837 39.7502 38.3246C39.8291 38.272 39.9605 38.2326 39.9867 38.1669C40.1444 37.7858 40.5255 37.6741 40.8803 37.9435C41.2088 38.1866 41.3205 38.1603 41.557 37.7135C41.8396 37.9435 42.1221 38.1406 42.3652 38.3837C42.95 38.975 43.4821 39.6255 44.0998 40.1774C45.151 41.1104 46.0774 42.155 47.0432 43.1669C47.582 43.7385 48.2062 44.1853 48.9224 44.5203C49.8553 44.9606 50.8015 45.3745 51.7476 45.7884C52.2601 46.0118 52.7988 46.0775 53.3573 46.0315C53.607 46.0052 53.8632 46.0052 54.1129 45.9987C54.5137 45.979 54.9408 45.9987 55.2364 45.5979C55.1838 45.4993 55.1247 45.3876 55.0524 45.2825C54.5268 44.5072 53.9946 43.7188 53.4559 42.95C52.9171 42.1748 52.3061 41.4652 51.5308 40.887C50.5978 40.184 49.7436 39.3889 48.8501 38.6334C48.653 38.456 48.4427 38.3114 48.2325 38.134C48.1471 38.0617 48.0879 37.9698 47.9762 37.8515C48.1076 37.7924 48.1931 37.7529 48.2719 37.7135C48.285 37.5624 48.3113 37.4179 48.3245 37.2405C48.2719 37.2142 48.2128 37.1682 48.1471 37.1485C47.8185 37.0236 47.72 36.7345 47.9565 36.4914C48.1996 36.2483 48.469 36.0249 48.7318 35.8081C48.9486 35.6373 49.1852 35.7161 49.4086 35.7884C49.5202 35.8213 49.6122 35.9067 49.7305 35.9855C49.7962 35.887 49.8488 35.8147 49.9276 35.703C50.0656 35.7687 50.2101 35.8278 50.335 35.9198C51.4388 36.682 52.5754 37.385 53.7778 37.9632C54.4808 38.3048 55.289 38.4625 56.0511 38.6925C56.1628 38.7253 56.3205 38.6794 56.4256 38.6334C56.7936 38.4428 57.1747 38.3443 57.5886 38.4034C57.7725 38.4297 57.9237 38.3903 58.0748 38.2589C58.2456 38.1077 58.4493 37.9763 58.653 37.8515C59.1195 37.5558 59.2903 37.1288 59.0735 36.6294C58.9552 36.3403 58.7778 36.0512 58.5544 35.8344C57.6083 34.9014 56.6425 33.9947 55.6766 33.0815C55.1838 32.615 54.6385 32.2273 54.0012 31.9579C53.3967 31.6886 52.8317 31.2943 52.2075 31.1235C51.1694 30.8476 50.2955 30.2234 49.2443 29.9671C48.2916 29.7306 47.4572 29.205 46.8067 28.4691C46.7147 28.364 46.6293 28.2326 46.5965 28.1012C46.5308 27.8384 46.5111 27.569 46.4651 27.3062C46.4322 27.0565 46.4125 26.8068 46.6622 26.6426C46.741 26.1695 47.2666 26.0972 47.5097 25.7753C47.5623 25.7096 47.7266 25.6899 47.8317 25.6964C48.0814 25.7161 48.3245 25.7621 48.5807 25.8081C48.6398 25.8147 48.699 25.8476 48.7581 25.841C49.4808 25.7293 50.059 26.0709 50.6175 26.3995C51.5111 26.9251 52.3652 27.5361 53.2982 28.0092C54.2509 28.4954 55.2824 28.7516 56.3994 28.4954C56.7936 28.4034 56.9775 28.1537 57.0301 27.8055C57.1024 27.2799 57.1615 26.7477 57.2075 26.2155C57.2338 25.9592 57.2206 25.6964 57.2206 25.4402C57.2206 24.021 55.9526 22.6544 54.1655 22.8712C52.8251 23.0355 51.4716 23.1997 50.1313 23.3246C49.2312 23.41 48.3245 23.4954 47.4243 23.4034C47.3652 23.3968 47.2995 23.3837 47.2535 23.3903C46.3731 23.4954 45.4795 23.5939 44.5991 23.7253C44.356 23.7582 44.1195 23.883 43.8961 23.9947C43.1405 24.3758 42.3915 24.7635 41.6556 25.1577C40.8409 25.5913 39.921 25.6767 39.0275 25.8016C38.4887 25.8738 37.9434 25.9395 37.398 25.749C37.1024 25.6439 36.7542 25.6702 36.4256 25.6636C36.3008 25.6636 36.1628 25.7161 36.0511 25.7687C35.4138 26.1169 34.7174 26.1695 34.0209 26.1629C33.9355 26.1629 33.8632 26.1498 33.7647 26.0775C33.6661 26.0052 33.4362 26.0775 33.2653 26.1104C33.0551 26.1564 32.8448 26.2549 32.628 26.2746C31.603 26.3797 30.5781 26.3535 29.5597 26.1826C28.8567 26.0644 28.1536 26.0315 27.4309 26.0972C26.879 26.1564 26.3534 26.2812 25.8146 26.3797C25.2167 26.498 24.6057 26.5046 24.0012 26.544C23.6595 26.5637 23.3179 26.544 22.9762 26.5703C22.0038 26.6491 21.0249 26.774 20.0459 26.82C19.2772 26.8594 18.5019 26.8002 17.7331 26.7871C17.72 26.7871 17.7003 26.774 17.6871 26.774C16.9053 26.8068 16.1234 26.82 15.3415 26.8659C14.4545 26.9119 13.5676 26.9842 12.6806 27.0433C12.4769 27.0631 12.2732 27.0893 12.0695 27.0696C11.7739 27.0565 11.4716 27.0433 11.1891 26.9776C10.6175 26.8331 10.0262 26.6951 9.65823 26.1892C9.34942 25.7621 9.0669 25.3285 8.78438 24.8949C8.7121 24.7766 8.65954 24.632 8.6464 24.4875C8.60698 23.8962 8.57413 23.318 8.54785 22.7267C8.54785 22.5558 8.5807 22.385 8.57413 22.2142C8.57413 21.8068 8.73182 21.452 8.91578 21.1104C8.97492 20.9987 9.04062 20.7884 9.27715 20.9133C9.31 20.933 9.46112 20.7293 9.5531 20.6307C10.0196 20.7556 10.1707 21.0644 10.1641 21.5046C10.151 22.2076 10.2036 22.9106 10.2364 23.6136C10.243 23.6859 10.3021 23.7648 10.3941 23.9553C10.4401 23.7976 10.4532 23.7188 10.4729 23.6399C10.5452 23.7056 10.5781 23.7188 10.5781 23.7385C10.6175 24.1196 10.8606 24.4087 11.0971 24.6715C11.1891 24.7832 11.4125 24.8029 11.5768 24.8292C11.7673 24.8554 12.0564 24.7503 12.1352 24.8357C12.3389 25.0788 12.5754 24.9014 12.7857 24.9474C12.8448 24.9606 12.9434 24.9277 12.9894 24.8949C13.2719 24.5992 13.6398 24.6058 14.0078 24.5729C14.2706 24.5466 14.5334 24.5204 14.7896 24.4349C15.5518 24.1787 16.3402 24.2115 17.1287 24.1327C18.0091 24.0407 18.9092 24.0144 19.7962 23.929C20.1313 23.8962 20.4598 23.7976 20.7883 23.7122C21.9118 23.41 23.0616 23.2983 24.2246 23.1734C24.7042 23.1209 25.1773 22.9698 25.6569 22.8515C25.8212 22.8121 25.9657 22.7464 26.1234 22.7135C26.5111 22.6281 26.8921 22.5427 27.1944 22.247C27.4309 22.0039 27.7331 21.9974 28.0616 22.0828C28.3245 22.155 28.6201 22.1682 28.8961 22.1682C29.6254 22.1682 30.3481 22.155 31.0774 22.1353C31.9841 22.1025 32.8908 22.0171 33.7975 21.9974C34.5662 21.9776 35.335 22.0105 36.1103 22.0171C36.2482 22.0171 36.3797 22.0039 36.5045 22.0171C36.8264 22.0368 37.1747 22.0171 37.4835 22.0959C38.469 22.3587 39.3888 22.1748 40.3021 21.8002C40.4664 21.728 40.6306 21.6688 40.7883 21.5769C41.6359 21.0907 42.5952 20.841 43.515 20.4993C44.3954 20.1708 45.3547 20.1642 46.2877 20.1182C47.5623 20.0591 48.8435 20.0591 50.1181 19.9934C50.7949 19.9606 51.4782 19.8423 52.1615 19.7635C53.239 19.632 54.3231 19.5926 55.4072 19.5926C56.3337 19.5926 57.0958 19.9409 57.8317 20.4336C58.7515 21.0578 59.4743 21.8397 59.921 22.8449C59.967 22.9501 60.013 23.0617 60.0656 23.1603C60.5452 23.9553 60.6306 24.8423 60.6241 25.7424C60.6241 25.887 60.6241 26.025 60.6306 26.1761C60.6963 27.1353 60.5846 28.0749 60.2495 28.9882C60.1773 29.1787 60.059 29.343 59.9605 29.5204C59.5137 30.2102 58.9092 30.7556 58.2325 31.2878C58.2916 31.3535 58.3573 31.4454 58.4361 31.5243C59.1786 32.2076 59.9408 32.8581 60.6569 33.5742C62.0104 34.9211 62.7463 36.5243 62.674 38.4362C62.674 38.5217 62.674 38.6071 62.674 38.7319C62.9894 38.8108 63.2982 38.8962 63.607 38.9816C65.059 39.3364 66.5045 39.6977 67.9565 40.0525C68.7909 40.2562 69.6122 40.4928 70.4664 40.6307C71.5373 40.795 72.5886 41.0775 73.6464 41.2549C74.5991 41.4192 75.5255 41.6885 76.4388 41.9579C77.4703 42.2667 78.4756 42.6741 79.2377 43.4625C79.3626 43.5939 79.4545 43.7516 79.5597 43.9093C79.5071 43.9093 79.4677 43.9356 79.3757 43.9619C79.4611 44.067 79.5334 44.1524 79.5991 44.2378C79.6122 44.2313 79.6319 44.2181 79.6451 44.205C79.6057 44.1064 79.5728 44.0013 79.5334 43.9027C79.8619 44.0933 79.8619 44.4284 79.9079 44.7372C79.9473 44.9934 79.9736 45.2496 79.9867 45.5125C79.9867 45.6767 80.0065 45.887 79.921 46.0184C79.7108 46.3338 79.4677 46.6228 79.218 46.9054C79.0143 47.1353 78.7384 47.109 78.469 47.0828C78.285 47.0631 78.1208 47.0171 78.0025 47.2142C77.9697 47.2733 77.8514 47.2996 77.766 47.3062C77.3783 47.3456 76.9907 47.385 76.6096 47.385C75.243 47.385 73.8829 47.2536 72.5294 47.0762C72.0827 47.0171 71.6227 46.9908 71.1628 46.9579C71.1497 46.9908 71.1431 47.0105 71.1365 47.0368C71.2088 47.0828 71.2811 47.1353 71.3599 47.1682C72.2929 47.6084 73.2456 48.0223 74.1457 48.5019C74.8948 48.9027 75.5912 49.4021 76.3074 49.8489C76.4716 49.954 76.6359 50.0394 76.787 50.1511C77.0235 50.3154 77.2404 50.4796 77.2732 50.8213C77.2863 50.9461 77.3061 51.1432 77.5229 51.2352C77.8251 51.3863 77.8054 51.8265 77.4966 51.9973C77.3258 52.0893 77.3061 52.1879 77.3258 52.3521C77.5294 52.431 77.6149 52.3062 77.6937 52.1288C77.8185 52.4507 77.582 52.4638 77.4309 52.5033C77.3455 52.7069 77.2995 52.9041 77.1878 53.0486C77.017 53.2391 76.7607 53.2786 76.4979 53.2851C75.7883 53.2983 75.0787 53.3443 74.3297 53.3705C74.3954 53.4297 74.4414 53.4954 74.494 53.5348C75.151 53.975 75.8015 54.4152 76.4651 54.8554C76.6162 54.9606 76.787 55.0591 76.6819 55.3285C76.8067 55.3154 76.8658 55.2956 76.9315 55.2891C77.1221 55.2694 77.2666 55.3416 77.2863 55.5322C77.2995 55.7556 77.398 55.9001 77.582 56.0315C77.72 56.1366 77.8842 56.9711 77.7726 57.0499C77.5097 57.2339 77.444 57.5558 77.2075 57.7398C77.0892 57.8252 76.9118 57.8712 76.7542 57.8843C75.7883 57.9698 74.8225 57.8843 73.8829 57.6872C73.6201 57.6347 73.3573 57.6018 73.0879 57.569C71.8593 57.4047 70.6701 57.1288 69.5465 56.6097C69.3166 56.5046 69.0735 56.4454 68.8435 56.3535C67.8317 55.9658 66.8396 55.565 65.8277 55.1905C65.4992 55.0657 65.1576 54.9803 64.8291 54.8751C64.8093 54.908 64.7962 54.9343 64.7765 54.954C65.2758 55.3219 65.7489 55.7096 66.2614 56.0512C66.9973 56.5506 67.7331 57.0696 68.515 57.5098C69.3363 57.9763 70.0656 58.5611 70.8212 59.113C71.268 59.4415 71.7016 59.7832 72.1484 60.1182C72.6214 60.473 72.9894 60.9067 73.2128 61.452C73.285 61.6228 73.4033 61.774 73.4427 61.9514C73.5281 62.3259 73.515 62.6609 73.1996 62.9829C72.8842 63.3048 72.5952 63.5545 72.063 63.5151C70.2824 63.3903 68.5741 63.0289 66.9447 62.339C66.5308 62.1682 66.1431 61.9054 65.7817 61.636C64.9079 60.9724 64.0209 60.3219 63.0616 59.7766C62.9959 59.7372 62.9434 59.6912 62.8711 59.6715C62.1812 59.4744 61.5833 59.0867 60.9854 58.7253C60.5386 58.4494 60.0853 58.1603 59.6911 57.8186C58.5413 56.8068 57.4112 55.7687 56.2811 54.7306C56.0643 54.5335 55.8869 54.297 55.6898 54.0867C55.5124 53.9027 55.3218 53.7188 55.0919 53.4954C55.0196 53.6399 54.9539 53.7385 54.921 53.837C54.7174 54.4021 54.5202 54.9606 54.3363 55.519C53.8041 57.1288 53.1471 58.6991 52.4506 60.2431C52.2666 60.6504 51.9841 60.9527 51.6096 61.1761C50.9132 61.5966 50.1444 61.8659 49.3363 62.0302C48.239 62.2602 47.1746 62.5755 46.1957 63.1209C45.1247 63.7122 44.0538 64.3298 42.9697 64.8883C42.0104 65.3876 41.0314 65.8541 39.9867 66.1498C39.448 66.2943 38.8764 66.3929 38.3179 66.4389C37.2075 66.5309 36.0971 66.5834 34.9736 66.6491C34.5005 66.6754 34.0275 66.6951 33.5216 66.7214C33.1471 69.5072 32.9368 72.3193 32.8317 75.1248C33.3902 75.2562 33.8501 75.4796 33.9486 76.1038C33.9815 76.2943 34.1063 76.4323 34.2771 76.544C34.9079 76.9251 35.5846 77.2404 36.3205 77.3784C37.2666 77.5624 38.2193 77.7135 39.1655 77.8909C39.3626 77.9303 39.5662 77.996 39.7305 78.1143C39.8553 78.2063 39.9342 78.2851 40.0984 78.3377C40.3481 78.4034 40.3284 78.6793 40.3284 78.8962C40.3218 79.0933 40.2758 79.2904 40.2167 79.4875C40.151 79.7437 40.0065 79.9277 39.7239 79.9803C39.5728 80.0131 39.4151 80.0723 39.172 80.1511C39.3691 80.1774 39.4677 80.1905 39.5728 80.1971C38.1931 80.5125 36.8659 80.2496 35.4729 79.9606C35.5518 80.1577 35.6044 80.3088 35.6832 80.4533C35.9723 80.9987 36.0446 81.5703 35.8803 82.1682C35.8212 82.3916 35.7817 82.6741 35.4401 82.6938C35.4072 82.6938 35.381 82.7135 35.3613 82.7332C35.0393 82.9566 34.5465 83.0552 34.1917 82.9566C34.1457 82.9435 34.0932 82.9369 34.0669 82.9106C33.8041 82.6084 33.4033 82.4573 33.1865 82.0893C32.7463 81.3403 32.2732 80.6176 31.8133 79.8817C31.7739 79.816 31.7279 79.77 31.6622 79.678C31.557 79.9014 31.4585 80.0854 31.3731 80.2694C31.1431 80.7358 30.9394 81.2155 30.6832 81.6688C30.5715 81.8791 30.3612 82.0236 30.1839 82.201C30.0984 82.293 29.9867 82.3719 29.9079 82.431C29.4151 82.3587 28.8895 82.6609 28.4164 82.3324C28.377 82.2273 28.3442 82.1222 28.3113 82.0236C27.6806 82.0762 27.3915 81.7214 27.5886 81.1629C27.6017 81.1235 27.6477 81.0841 27.6346 81.0447C27.5229 80.5716 27.8908 80.2825 28.1011 79.9277C28.6201 79.0867 29.1392 78.2391 29.6319 77.385C29.7568 77.1682 29.7765 76.8922 29.8488 76.6426C29.9342 76.3535 29.9145 76.0381 30.2561 75.8673C30.3218 75.8278 30.3481 75.6636 30.3415 75.5584C30.3284 75.1117 30.2627 74.6649 30.2824 74.2181C30.3218 73.2457 30.4072 72.2667 30.4729 71.2943C30.5387 70.3811 30.6109 69.4546 30.6832 68.5414C30.7292 67.9106 30.7883 67.2864 30.8475 66.6097C30.4861 66.5966 30.1379 66.5769 29.7831 66.5703C28.1733 66.544 26.5833 66.2943 25.0393 65.887C24.2443 65.6767 23.5084 65.2694 22.7528 64.9408C22.3455 64.7634 21.9513 64.5729 21.5373 64.4218C20.6766 64.0998 19.8225 63.7713 19.0538 63.2588C19.0209 63.2326 18.9683 63.2326 18.8895 63.2063C18.8632 63.5348 18.7712 63.837 18.7712 64.1656C18.7712 64.5926 18.6398 65.0131 18.561 65.4402C18.5478 65.5256 18.4887 65.6044 18.4887 65.6899C18.5084 66.6557 18.2128 67.569 18.0025 68.4954C17.6871 69.9014 17.4703 71.3272 17.3061 72.7661C17.3061 72.8055 17.3126 72.8449 17.3192 72.9041C17.3783 72.9041 17.444 72.9238 17.5032 72.9172C18.0419 72.8318 18.5019 73.0157 18.9158 73.3245C20.0065 74.1524 21.2417 74.7569 22.4506 75.3876C22.6806 75.5125 22.9302 75.6176 23.1865 75.6833C23.5019 75.7687 23.7318 75.9527 23.9486 76.1761C24.0012 76.2286 24.034 76.3009 24.0998 76.3272C24.4743 76.4914 24.4611 76.8068 24.4743 77.1485L24.0735 77.1879C24.2574 77.3784 24.3888 77.5164 24.54 77.6807C24.4808 77.8843 24.448 78.134 24.0866 78.0157C24.1326 78.3245 24.0735 78.4625 23.7909 78.5742C23.5478 78.6728 23.3113 78.7976 23.0551 78.8502C22.8514 78.8896 22.6017 78.8765 22.4046 78.7976C21.8001 78.5545 21.2022 78.2983 20.6306 77.996C20.0196 77.6675 19.448 77.293 18.8435 76.9382C18.7778 76.8988 18.7187 76.8659 18.5873 76.8068C18.4953 77.1025 18.3902 77.3587 18.3376 77.6347C18.1865 78.456 18.0485 79.2772 17.8974 80.1051C17.8448 80.4336 17.7791 80.7556 17.7134 81.0841C17.6083 81.6031 17.2404 81.9382 16.8001 82.1945C16.4913 82.3784 16.1234 82.4836 15.7489 82.477C15.6503 82.477 15.4861 82.4704 15.4664 82.4113C15.3481 82.1485 15.0065 82.1288 14.8619 81.8922C14.7831 81.7608 14.7502 81.5506 14.5137 81.5374C14.494 81.5374 14.4611 81.4454 14.4545 81.3929C14.3691 80.7818 14.1326 80.1708 14.2969 79.5335C14.2969 79.5072 14.2837 79.4809 14.2706 79.4284C13.8961 79.724 13.561 80.0591 13.1668 80.2956C12.7791 80.5322 12.3389 80.6767 11.9184 80.8541C11.8527 80.8804 11.7673 80.8935 11.7016 80.8673C11.5505 80.8016 11.4059 80.6439 11.268 80.6439C11.0314 80.6439 10.9723 80.519 10.8869 80.3613C10.8606 80.3088 10.7817 80.2825 10.716 80.2562C10.5978 80.2102 10.4861 80.1708 10.5846 80.0065C10.5978 79.9803 10.5781 79.9146 10.5584 79.9014C10.2101 79.7372 10.3284 79.5006 10.4598 79.2575C10.4927 79.1918 10.5255 79.1393 10.5715 79.0407L10.1641 79.0867C10.1839 79.0013 10.1839 78.9356 10.2167 78.8765C10.6701 78.0683 11.3074 77.3981 11.9775 76.7608C12.5032 76.2615 13.0288 75.7818 13.5544 75.2956C13.6924 75.1708 13.8501 75.0525 13.9946 74.9343C14.2377 74.7437 14.4808 74.5466 14.7108 74.3495C14.9736 74.1327 15.1181 73.8962 15.059 73.5217C15.0196 73.2983 15.1313 73.0486 15.1641 72.8121C15.1839 72.7004 15.1839 72.5821 15.1839 72.4704C15.1839 72.2142 15.151 71.9645 15.1839 71.7148C15.2496 71.2746 15.3415 70.8344 15.4401 70.4008C15.5255 70.0263 15.6701 69.6649 15.762 69.2838C15.808 69.1196 15.7883 68.9422 15.8146 68.7779C15.8409 68.6399 15.8343 68.4757 15.9132 68.3705C16.0971 68.1077 16.0971 67.8318 16.1103 67.5493C16.1234 67.3784 16.1168 67.2076 16.2745 67.0893C16.3139 67.0565 16.3534 66.9974 16.3665 66.9448C16.5636 66.1038 16.8527 65.2825 16.879 64.4152C16.8921 64.021 17.1155 63.6991 17.1155 63.3114C17.1155 62.9763 17.1944 62.6281 17.2798 62.2864C17.3323 62.0762 17.2863 61.9316 17.1352 61.7937C16.9184 61.5834 16.7147 61.3535 16.5111 61.1235C16.0117 60.5782 15.4072 60.1839 14.6977 59.9211C14.1983 59.7306 13.7384 59.4678 13.3376 59.1196C13.2719 59.067 13.1996 59.0144 13.1142 58.9882C12.4703 58.7648 11.9775 58.318 11.5242 57.8515C10.9197 57.2273 10.3021 56.5966 9.71079 55.9592C9.21145 55.4139 8.72525 54.8554 8.24561 54.2904C8.12735 54.1458 8.03536 53.9816 7.94338 53.8173C7.5623 53.1209 7.20094 52.4113 6.81329 51.7148C6.18911 50.611 5.53865 49.5072 5.15757 48.2851C5.04588 47.9303 4.85534 47.5952 4.68451 47.2602C4.12603 46.1498 3.65954 44.9934 3.31789 43.7976C2.93681 42.4704 2.64772 41.1235 2.31263 39.7766C2.06296 38.7582 1.81986 37.7332 1.5899 36.7083C1.47163 36.1695 1.39279 35.6307 1.29423 35.0985C1.09055 33.9947 0.860593 32.8909 0.676625 31.7871C0.486086 30.6964 0.275837 29.5992 0.177282 28.502C0.045876 26.9514 -0.105241 25.4008 0.00645421 23.8436C0.12472 22.2602 0.34811 20.6833 0.801461 19.159C1.00514 18.4691 1.35994 17.8252 1.68188 17.1682C2.08267 16.3272 2.55573 15.519 2.9171 14.6715C3.61355 13.0355 4.53339 11.5177 5.52551 10.0394C5.90659 9.47436 6.2351 8.87646 6.60961 8.29828C6.93812 7.79236 7.31263 7.32587 7.92367 7.11562C8.00251 7.08934 8.08136 7.04335 8.1602 6.99079C8.65954 6.6557 9.15232 6.30748 9.65823 5.97896C10.3284 5.53875 10.9394 5.04598 11.5045 4.4875C12.5163 3.48225 13.745 2.79893 15.1839 2.5624C16.787 2.29302 18.377 2.0105 19.9473 1.62942C20.0196 1.61628 20.0919 1.59 20.1707 1.59C21.222 1.53744 22.2732 1.45859 23.331 1.43888C24.5203 1.41917 25.6569 1.69512 26.7476 2.13533C27.3192 2.36529 27.8711 2.65439 28.4033 2.95662C29.172 3.39683 29.9145 3.86989 30.6635 4.32324C31.0183 4.53349 31.4059 4.69775 31.7147 4.95399C32.1287 5.29565 32.4835 5.70301 32.858 6.09723C32.9697 6.20892 33.0485 6.34033 33.1602 6.48487C33.3639 6.32719 33.5413 6.19578 33.7055 6.05123C34.5925 5.26937 35.4992 4.52692 36.5833 4.02101C36.9973 3.8239 37.3849 3.5808 37.7923 3.37712C37.95 3.29828 38.1208 3.24571 38.285 3.18001C38.561 3.07489 38.8304 2.95662 39.1129 2.87121C39.5268 2.74637 39.9408 2.60182 40.3613 2.54926C41.0446 2.46385 41.6425 2.1879 42.2338 1.88566C42.9302 1.5243 43.5938 1.1038 44.2837 0.729289C44.7371 0.486188 45.2101 0.275938 45.6832 0.0525478C45.7358 0.0328369 45.7949 0.0394072 45.9 0.0328369C45.8737 0.124821 45.854 0.190524 45.8343 0.249657C45.8672 0.249657 45.8934 0.262797 45.9197 0.249657C46.4256 -0.0919988 46.9118 0.183954 47.1615 0.689867C47.2206 0.808132 47.3718 0.900117 47.4309 1.02495C47.5952 1.39289 47.5557 1.72797 47.2075 1.98422C47.2535 2.10905 47.3389 2.22732 47.3192 2.33244C47.3061 2.42443 47.1812 2.50327 47.1089 2.59525C46.7279 3.02889 46.3337 3.44282 45.9789 3.87646C45.5452 4.40866 45.0065 4.81602 44.3888 5.12482C43.0091 5.84098 41.7542 6.71483 40.7292 7.87121C40.4072 8.226 40.1444 8.63993 39.9079 9.05386C39.5005 9.75688 38.9881 10.3876 38.3442 10.8804C37.8448 11.2549 37.2732 11.5703 36.5965 11.5506C36.6885 12.0039 36.7804 12.4179 36.8527 12.8384C36.8921 13.0815 36.879 13.318 36.7542 13.5545C36.6622 13.7253 36.649 13.9422 36.6687 14.159C36.7213 14.0604 36.7607 13.9619 36.8133 13.8633C36.8264 13.8633 36.833 13.8633 36.8527 13.8633C36.7016 14.9277 36.5439 15.9987 36.3862 17.0762C36.3468 17.0631 36.3337 17.0696 36.3271 17.0631C36.3205 17.0565 36.3139 17.0368 36.3074 17.0302C36.2877 17.0105 36.268 17.0039 36.2088 16.9579C36.222 18.0683 35.8737 19.0604 35.3415 20C35.3087 20 35.289 19.9803 35.2561 19.9803C35.3941 19.5598 35.5452 19.1458 35.6701 18.7188C35.808 18.2917 35.8343 17.8515 35.8146 17.4047C35.7817 17.4047 35.7555 17.3981 35.7226 17.385C35.6701 17.5953 35.5912 17.8055 35.5846 18.0092C35.5715 18.3706 35.4467 18.6728 35.2496 18.975C35.0656 19.2707 34.9408 19.5992 34.7962 19.9146C34.7305 20.0657 34.6648 20.2168 34.5728 20.3614C34.586 19.8226 35.059 19.3758 34.8422 18.6728C34.7568 18.8765 34.7042 19.0079 34.6451 19.1458C34.6057 19.1261 34.5662 19.0999 34.5268 19.0801C34.5597 18.9356 34.5794 18.7845 34.6319 18.6334C34.9539 17.6281 35.0262 16.6031 35.0524 15.565C35.059 15.2956 35.0984 15.0197 35.1379 14.7503C35.1904 14.3364 35.289 13.9225 35.3021 13.5085C35.3021 13.272 35.1904 13.042 35.1181 12.8121C34.9802 12.3719 34.8685 11.9251 34.6779 11.498C34.5071 11.1169 34.2903 10.749 34.0538 10.4073C33.7778 10.0131 33.4756 9.64519 33.1471 9.29696C32.6871 8.80419 32.1944 8.35741 31.7344 7.86464C31.2022 7.29959 30.5912 6.82653 29.9408 6.39289C29.1326 5.85412 28.2193 5.5059 27.3849 5.0197C26.8987 4.7306 26.3599 4.49407 25.8146 4.32324C24.6714 3.95531 23.5084 3.80419 22.3061 4.10642C21.9775 4.19184 21.6227 4.1787 21.2942 4.25097C20.2955 4.47436 19.3034 4.72403 18.3047 4.94742C17.6083 5.10511 16.9053 5.22995 16.2088 5.38106C15.243 5.59131 14.4086 6.0578 13.6858 6.70826C12.9434 7.35872 12.2338 8.04204 11.3928 8.57423C10.9066 8.88303 10.4138 9.1787 9.92761 9.4875C9.41513 9.80288 9.02748 10.2299 8.73182 10.749C8.25218 11.5834 7.72656 12.385 7.2535 13.2194C6.8987 13.837 6.58333 14.4744 6.29423 15.1248C5.90659 15.9527 5.56493 16.8002 5.18385 17.6281C5.05245 17.9041 4.91447 18.1734 4.73707 18.4231C4.17203 19.2115 3.84351 20.0723 3.7581 21.0315C3.69896 21.7411 3.50843 22.4573 3.44272 23.1669C3.37045 23.9093 3.30475 24.6583 3.35074 25.4073C3.40987 26.6163 3.515 27.8252 3.67268 29.021C3.81066 30.0591 4.05376 31.0907 4.23116 32.1222C4.36913 32.9303 4.46112 33.7516 4.58596 34.5532C4.63195 34.862 4.69108 35.1774 4.76992 35.4862C5.06559 36.7017 5.36782 37.9172 5.65691 39.1393C5.80146 39.7372 5.89345 40.3614 6.0577 40.9527C6.37308 42.0302 6.73444 43.088 7.06953 44.159C7.19437 44.5269 7.31263 44.9014 7.43747 45.2694C7.37833 45.2365 7.3192 45.2168 7.19437 45.1511C7.30606 45.3548 7.39147 45.5059 7.46375 45.6504C7.47689 45.6504 7.48346 45.6307 7.4966 45.6307L7.41776 45.2628C7.79883 45.6964 7.97623 46.2352 8.17334 46.7608C8.26532 46.9908 8.2259 47.2667 8.27847 47.5164C8.29818 47.6544 8.36388 47.7858 8.47557 47.9041C8.43615 47.7595 8.39673 47.615 8.37045 47.4638L8.41644 47.4441C8.57413 47.7267 8.73839 48.0092 8.8895 48.2983C9.02748 48.5677 9.15889 48.8436 9.29029 49.113C9.39542 49.3364 9.44798 49.5598 9.50054 49.8029C9.58595 50.2562 9.76992 50.703 10.1707 51.0184C10.2364 51.1826 10.289 51.3535 10.3481 51.5177C11.084 52.2207 11.4848 53.1669 12.2141 53.883C12.9434 54.5992 13.6333 55.3548 14.3823 56.0447C14.7042 56.3469 15.1181 56.5966 15.5321 56.7608C16.6753 57.2076 17.6871 57.8318 18.5676 58.6793C19.0669 59.1655 19.5925 59.6386 20.1444 60.0723C20.4795 60.3416 20.8737 60.5585 21.268 60.749C21.7739 60.9855 22.3061 61.1826 22.8185 61.3995C23.6727 61.7608 24.5465 62.1025 25.381 62.4967C26.3139 62.9303 27.2929 63.1734 28.331 63.2523C29.5597 63.3508 30.7883 63.41 32.0235 63.3771C32.628 63.3574 33.239 63.4297 33.8501 63.4494C35.2233 63.4822 36.5768 63.3508 37.9368 63.1209C39.5794 62.8515 41.0248 62.0893 42.4243 61.2549C43.377 60.6899 44.3297 60.1051 45.3612 59.7043C46.222 59.3758 47.1089 59.1524 47.9894 58.8765C48.4099 58.7516 48.8501 58.6334 49.2574 58.4625C49.9539 58.18 50.4401 57.7069 50.6175 56.9579C50.8146 56.1104 50.9986 55.2628 51.2614 54.4415C51.4913 53.6991 51.8001 52.9763 52.0958 52.2536C52.1944 52.0236 52.2272 51.82 52.1681 51.5834C52.1287 51.4323 52.0892 51.268 52.0892 51.1169C52.0892 50.7424 51.971 50.4336 51.6753 50.1708C51.5373 50.046 51.4782 49.816 51.3731 49.6123C51.4388 49.4415 51.4322 49.1787 51.8461 49.2181C51.8133 49.1787 51.7804 49.1327 51.7476 49.0933C51.6622 49.0736 51.5768 49.0276 51.4848 49.021C51.1103 49.0013 50.7686 48.8765 50.4335 48.7122C49.9079 48.4428 49.3626 48.2326 48.8304 47.9829C48.2456 47.7069 47.674 47.4047 47.0958 47.1156C47.0498 47.0893 46.9907 47.0696 46.9447 47.0433C46.9184 47.0828 46.8921 47.109 46.8921 47.1222C47.0827 47.7201 47.0432 48.3246 46.9447 48.9159C46.8133 49.7175 46.4913 50.4402 45.7095 50.887C45.3284 51.1104 44.9342 51.314 44.5465 51.5177C43.6333 51.9974 42.6543 51.9711 41.6753 51.8988C41.3074 51.8725 40.9197 51.8791 40.5715 51.774C40.0393 51.6097 39.5137 51.3797 39.0209 51.1432C38.1799 50.7424 37.3586 50.3219 36.5308 49.9014C36.0577 49.6649 35.5912 49.4087 35.1247 49.1656C35.059 49.1327 34.9999 49.113 34.875 49.0539L34.9342 49.5926C34.9933 50.1314 35.0919 50.6767 35.105 51.2286C35.105 52.1945 34.7174 53.0092 33.9815 53.6793C33.4756 54.1458 32.8908 54.3429 32.1944 54.3232C31.9775 54.3167 31.7476 54.3692 31.5308 54.3824C31.3074 54.3889 31.0774 54.4087 30.8672 54.3561C30.059 54.159 29.2443 53.929 28.4427 53.7056C28.3245 53.6268 28.1931 53.5545 28.0748 53.4822" fill="#0F140F"/>
<path d="M24.1457 12.8581C24.0209 12.9369 23.8107 13.0683 23.607 13.2129C23.3902 13.3771 23.1536 13.4625 22.8777 13.5085C22.1812 13.6137 21.5176 13.4888 20.8737 13.2786C20.1904 13.0683 19.9867 12.661 19.9736 11.8725C19.9605 11.3338 20.0459 10.8081 20.4992 10.4139C20.5452 10.3745 20.5781 10.2825 20.5846 10.2168C20.6306 9.74374 20.9132 9.48093 21.3468 9.26411C22.0498 8.90932 22.7857 8.84361 23.5478 8.8239C23.8501 8.81733 24.1063 8.90275 24.2772 9.14585C24.3823 9.28382 24.5005 9.41523 24.7042 9.3101C24.7174 9.3101 24.7568 9.3101 24.7699 9.31667C24.9802 9.43494 25.2036 9.93428 25.1576 10.1708C25.1444 10.2497 25.1116 10.3482 25.1444 10.4073C25.3941 10.8016 25.2167 11.1826 25.1181 11.5637C25.013 11.9514 24.8225 12.2799 24.4283 12.4704C24.3231 12.5296 24.264 12.6807 24.1392 12.8515" fill="#0F140F"/>
</svg>
