<svg width="512" height="512" viewBox="0 0 512 512" fill="none" xmlns="http://www.w3.org/2000/svg">
<g clip-path="url(#clip0_112_371)">
<rect width="512" height="512" rx="256" fill="#3CC199"/>
<path d="M256.519 511.038C397.638 511.038 512.038 396.638 512.038 255.519C512.038 114.4 397.638 0 256.519 0C115.4 0 1 114.4 1 255.519C1 396.638 115.4 511.038 256.519 511.038Z" fill="#3CC199"/>
<path d="M145.009 406.253L256.519 255.519M319.776 124.548C285.238 141.779 238.948 171.291 204.902 217.316C143.308 300.562 145.009 406.215 145.009 406.215C145.009 406.215 246.543 376.93 308.099 293.646C369.693 210.401 367.992 104.747 367.992 104.747C367.992 104.747 347.701 110.604 319.738 124.548" stroke="white" stroke-width="30" stroke-linecap="round" stroke-linejoin="round"/>
</g>
<defs>
<clipPath id="clip0_112_371">
<rect width="512" height="512" rx="256" fill="white"/>
</clipPath>
</defs>
</svg>
